<?xml version="1.0" encoding="utf-8"?>
<!-- Generator: Adobe Illustrator 24.0.1, SVG Export Plug-In . SVG Version: 6.00 Build 0)  -->
<svg version="1.1" id="Layer_1" xmlns="http://www.w3.org/2000/svg" xmlns:xlink="http://www.w3.org/1999/xlink" x="0px" y="0px"
	 viewBox="0 0 353.5 136.8" style="enable-background:new 0 0 353.5 136.8;" xml:space="preserve">
<style type="text/css">
	.st0{fill:#E7A026;}
</style>
<path class="st0" d="M32.9,35.7c-3.3,3.2-7.1,8-9.3,12c-2.7,5-4,7.5-4,7.5s-7.2-0.4-13,3C1.9,61,1,64.6,1.6,67
	c0.6,2.4,2.9,3.5,5.3,3.1c2.4-0.3,3.7-1.6,3.6-3.4c-0.1-1.8-1.3-2.2-1.3-2.2s-0.1-1.9,3.1-3.3c3.3-1.4,5.2-1.5,5.2-1.5
	S8.7,81.4,10,92.1c0.9,8.3,10.9,6.1,10.9,6.1s-1.5-0.9-1.8-5.8c-0.3-4.9,1.2-13.9,2.2-18.7c0.7-3.5,4.1-15.2,4.1-15.2
	s2.5,0.2,5.6,0.5s4.9,1.3,4.9,1.3l-2.7,27.9l10.6-1.2l5.8-56.7C49.5,30.4,41.2,27.5,32.9,35.7z M36.1,57.2c0,0-1.8-0.7-4.6-1.2
	c-2.8-0.5-5.2-0.5-5.2-0.5s3-7.5,5.2-11.5c3.3-5.9,6.6-7.9,6.6-7.9L36.1,57.2z M98.8,67.5c0,0-1.5,5.1-2.6,7.4
	c-1.1,2.2-2.9,5.2-6.3,7c-1.6,0.8-6.4,1.9-9.5,0.2c-4.6-2.6-4.2-7.6-4.2-9c0-1.3,0.5-5-0.1-6.4c-0.8-1.8-2.5-2.3-4.1-1.4
	c-0.9,0.5-2.3,1.9-3.3,3.1l-1.7,16.2l-10.7,1.2l4-38.6L71.1,46l-1.6,15.5c2.9-3.8,7.8-10.6,9.4-12.7c4-5.3,7.5-5.9,10.5-4.9
	c3.9,1.3,3.3,6.7,2.1,7.9C90,53.3,88.7,54,86,53.2c-2.2-0.7-2.3-3.2-2.3-3.2s-1.4,1.2-2.8,2.8c-1.4,1.6-4.9,6.8-4.9,6.8
	s3.4-1.3,6.2-0.6c4.3,1.1,4.6,4.6,4.8,6.5c0.1,1.4-0.5,5.9-0.2,7.5c0.2,1,0.6,2.3,2.7,2.3c2,0.1,3.4-1,4.4-2.5
	c1-1.5,1.3-5.1,1.3-5.1L98.8,67.5z M161.1,60.4c0,0-1.1,4.9-2.3,7.4c-1.5,3.1-3.1,6-6.3,7.3c-2.9,1.2-7.3,2.1-11.1-0.9
	c-3.3-2.7-2.8-7.4-2.5-10.4c0.1-1.5,1.1-9.8,1.2-12c0.1-2.2,0.4-6.5-3-6.3c-2.4,0.2-5.2,3.9-5.5,8.5l-2.4,23.7l-10.6,1.2
	c0,0,2.7-25.4,2.8-26.9c0.3-2.6-0.4-5.7-3.9-4.4c-2.1,0.8-4,4.1-4.4,7.9l-2.5,24.3L99.8,81l4-38.6l10.7-1.2l-0.4,4.1
	c1-1.2,2.2-2.5,3.3-3.3c2.2-1.5,6.1-2.5,8.9-1.8c4.5,1.2,4.9,5.5,4.9,5.5s2.9-5.8,7.1-7.3c4.2-1.4,8.2-0.2,9.9,1.5
	c1.7,1.8,2.4,5.6,2,10.1c-0.3,3.4-1.4,11.7-1.4,13.8c-0.1,2.1,0.5,4.1,2.7,4.3c2.2,0.2,3.9-1,5.2-4c0.7-1.7,1.2-3.4,1.2-3.4
	L161.1,60.4z M166.2,35.6l10.7-1.2c0,0-2.5,24.1-2.5,25c-0.1,1.6-0.7,6,2.6,6c3.6,0,5.2-5.4,5.4-8.8c0.1-1.9,2.3-23,2.3-23l10.8-1.2
	c0,0-2.8,26.9-2.8,27.6c-0.2,4.9,4.9,3.7,6.1,2.5c2.3-2.4,2.9-6.4,2.9-6.4l3.3-0.2c0,0-1.5,6.5-3.9,9.7c-1.2,1.7-4.5,6.1-11.8,5.9
	c-5-0.1-6.4-6.6-6.4-6.6s-1.3,5.1-6.6,7.5c-3.3,1.5-9.2,1.7-11.4-2.6c-1.8-3.5-1.2-9.8-1.2-9.8L166.2,35.6z M246.5,33.5
	c0,0-3.1,2.9-6.3,4.3c-2.4,1.1-7,2.4-7,2.4s-0.4-0.7-1.3-1.4c-0.9-0.7-1.5-0.6-1.5-0.6s3-6.6,3.8-13.1c0.7-5.5,0.5-12.6-4.8-14.9
	c-4.1-1.8-9.9,0.7-13.4,6.2c-2.1,3.3-4.9,9-6.3,14.2c-1.3,4.6-3.2,14.9-3.4,18.2c-0.2,3.2-0.7,10.4,2.6,14.5c4,5.2,9.2,5.6,15.2,4
	c5.2-1.3,8.6-5.3,10.9-10.2c2.8-6,0.7-13.9,0.7-13.9s3.4-1.1,5.8-2.3c4-2.1,6.2-5.3,6.2-5.3L246.5,33.5z M221.5,43.2
	c0.3,1.3,1.2,2.9,3.2,3c2.2,0.1,3.7-0.9,3.7-0.9s1.7,4,0.8,8.2c-0.9,4.2-3.8,7.6-7.3,7.1c-3.8-0.5-4.3-5.3-4.3-9
	c0-2,0.5-9.9,1.6-17.6c1-7.5,3.5-14.2,4.3-15.5c0.8-1.3,1.9-3.2,4.1-2.6c2.2,0.6,2.2,6.2,1.7,10c-0.8,6-3.1,12-3.1,12
	s-1.8-0.1-3.3,1C221.5,40,221.3,42,221.5,43.2z M325.2,0l-1.8,56.5l-11,1.2c0,0,1-33.7,1-33.7l-10.2,34.7l-10.5,1.2l-2.2-33.7
	L281.6,61l-6,0.7L289,8c0,0-7.1,2.5-9.5,10.5c-2.4,8.2,1.3,12.5,1.3,12.5s-5.4,0.9-7.6-2c-2.2-2.9-1.4-7.9-0.1-11.3
	c1.2-3.3,5.2-7.5,8.3-10.1c3.2-2.6,7.7-4.3,10.6-4.9c3.6-0.7,7.5,0.1,7.5,0.1l2.6,39.6l12.1-41.2L325.2,0z M205.2,103
	c85.3-8,144,5.2,144.5,5.3c0.6,0.2,2.9,1.1,0.5,3c-1.7,1.4-2.9,0.7-3.8,0.6c-1.1-0.2-60-13.3-141-5.3
	c-79.9,7.9-128.3,28.9-129.2,29.2c-0.6,0.3-3.3,1.6-5,0.3c-2.3-1.8,0.6-2.9,1-3.1C72.5,132.9,125.7,110.5,205.2,103z M250.2,44.4
	l16.5-1.8l-0.5,5.2l-16.5,1.8L250.2,44.4z"/>
</svg>
