<?xml version="1.0" encoding="utf-8"?>
<!-- Generator: Adobe Illustrator 24.0.1, SVG Export Plug-In . SVG Version: 6.00 Build 0)  -->
<svg version="1.1" id="Layer_1" xmlns="http://www.w3.org/2000/svg" xmlns:xlink="http://www.w3.org/1999/xlink" x="0px" y="0px"
	 viewBox="0 0 353.5 136.8" style="enable-background:new 0 0 353.5 136.8;" xml:space="preserve">
<style type="text/css">
	.st0{fill:#E9A127;}
</style>
<path class="st0" d="M314.4,57c0-9.7,0-19.2,0-28.6c-0.2-0.1-0.4-0.2-0.5-0.2c-1.2,3.8-2.3,7.5-3.5,11.3c-1.2,4-2.4,8-3.6,11.9
	c-2.4,8.1-3.4,8.7-12.8,7.4c-0.6-9.6-1.3-19.3-2-28.9c-0.4,0-0.8,0-1.2-0.1c-2.2,8.8-4.6,17.5-6.6,26.3c-0.9,3.8-2.3,6.1-7.4,4.7
	c4.3-17.2,8.6-34.5,13-51.9c-8.1,2.3-11.3,10.5-8.6,21.4c-6,1.6-9.6-2.5-8.3-9.2c2.4-11.9,17.7-21.6,27.8-18.4
	c0.9,11.9,1.7,24,2.6,36.2c0.3,0,0.6,0.1,0.9,0.1c2.7-9,5.4-18,8.1-27c0.3-1.1,0.7-2.2,1-3.3c2.7-9.2,2.7-9.2,13-8.4
	c0,5.1,0.1,10.2,0,15.3c-0.3,11.5-1,23-0.9,34.4c0,5.3-1.8,7.2-6.8,6.9C317.4,56.9,316,57,314.4,57z M157.1,62.9
	c-1.3,2.8-2.7,6.3-6.2,4.7c-1.4-0.7-1.5-4.8-1.7-7.4c-0.2-2.1,0.6-4.3,0.7-6.4c0.1-3.3,0.4-6.6,0-9.9c-0.6-4.3-3.7-6.8-7.8-5.9
	c-4,0.9-7.7,3.3-11.9,5.2c-4.2-4.8-7.5-4.9-15.4-0.3c-4-3.4-7.8-0.3-11.9-0.6c-1.3,13-2.5,25.6-3.8,38.8c2.3-0.3,4-0.7,5.6-0.6
	c4.7,0.3,6.2-1.7,6.3-6.4c0.2-6.6,0.8-13.3,2.1-19.8c0.5-2.5,3.5-4.6,5.3-6.8c0.6,2.5,1.3,5,1.9,7.6c0.1,0.5-0.2,1-0.2,1.5
	c-0.7,7.4-1.4,14.7-2.1,22.5c2.1-0.3,3.6-0.7,5-0.6c5.5,0.6,6.6-2.4,6.8-7.1c0.2-6,1.1-11.9,1.8-17.9c0.2-1.8,0.6-3.8,1.6-5.1
	c0.9-1.3,2.8-1.9,4.2-2.8c0.7,1.4,2,2.7,2.1,4.1c0.2,2.4-0.3,5-0.4,7.4c-0.2,3.6-0.8,7.3-0.6,10.9c0.3,5.7,4,8.6,9.7,8
	c6.8-0.7,11.9-7.1,12.1-16.3C158.9,61.1,157.6,61.8,157.1,62.9z M22.5,63.3c1-4.1,3-5.2,6.7-4.2c1.6,0.4,3.1,0.8,5,1.4
	c-0.9,9.3-1.7,18.3-2.6,27.9c4.1-0.5,7.5-0.9,11.1-1.3c1.9-19.2,3.8-38,5.6-56.9c-7.2-1.7-12.7,0.6-16.8,5.3
	c-4.3,4.8-7.9,10.2-11.4,15.6c-1.6,2.4-3.1,3.6-6,4.2c-4.1,0.8-8.2,2.6-11.7,4.9c-1.6,1-2.6,4.4-2.4,6.4c0.2,1.3,3.1,2.9,5,3.2
	c1.1,0.1,3.7-2.5,3.5-3.5c-1.2-5.9,3-5.3,6.9-6.4c-0.7,2-1.3,3.4-1.7,4.8c-2,7.9-4.5,15.7-5.6,23.7c-1.1,7.7,3.1,11.1,10.3,9.7
	C16.4,85.8,19.7,74.6,22.5,63.3z M24.8,54.8c3.6-6.4,6.9-12.3,10.1-18.2c0.5,0.2,1.1,0.5,1.6,0.7c-0.7,6.3-1.3,12.5-2,19.3
	C31,55.9,28.5,55.4,24.8,54.8z M353.5,109.2c-1.5-0.4-2.9-1.1-4.4-1.3c-19.1-2.3-38.3-5.2-57.5-6.7c-35.5-2.6-70.9-0.6-106.1,4
	c-38.2,5-75.6,13.5-111.8,27c-1.7,0.6-3.2,1.8-4.8,2.7c0.2,0.6,0.4,1.3,0.6,1.9c2.4-0.3,4.9-0.2,7.1-1
	c58.6-21.8,119.4-30.8,181.5-31.4c29.7-0.3,59.2,2,88.4,7.5c2.2,0.4,4.6-0.4,6.9-0.6C353.5,110.5,353.5,109.9,353.5,109.2z
	 M247.5,34.2c-3.4,1.6-6.7,3.5-10.2,4.7c-1.4,0.5-3.5-0.1-5-0.8c-0.4-0.2,0.1-2.6,0.4-4c0.8-3.4,1.9-6.7,2.5-10.1
	c1.1-7-1.3-12.6-5.7-14.1c-4.6-1.6-9.6,1.1-13.5,7.2c-0.3,0.4-0.5,0.8-0.8,1.3c-5.9,11.5-8.8,23.7-8.4,36.6
	c0.4,11.2,9.4,16.3,19.8,11.7c5.5-2.5,9.1-6.8,10.1-12.8c0.5-3.4,0.1-6.9,0.1-10.4c4.3-2.3,9.2-3.6,11.6-8.1
	C248.1,34.9,247.8,34.5,247.5,34.2z M227.9,57.7c-0.7,1.5-3.8,2.5-5.8,2.4c-1.2-0.1-3.2-2.6-3.3-4.2c-1.1-12.7,0.5-25.2,5.4-37.1
	c0.6-1.3,2.6-2.1,4-3.1c0.7,1.4,2.1,2.9,1.9,4.2c-0.6,5.2-1.6,10.4-2.6,15.6c-0.1,0.7-0.8,1.7-1.4,1.9c-2.7,1.1-5.3,2.8-3.6,5.8
	c1,1.8,4,2.4,6.1,3.6c0.7-0.1,1.4-0.1,2.2-0.2C229.8,50.4,229.4,54.3,227.9,57.7z M163.8,64.7c-0.1,7.7,6.7,11.2,13.3,7.3
	c2.3-1.4,4.2-3.7,6.2-5.6c3.4,4.9,6.4,6,11.4,4.2c5.8-2.1,10-8.4,9.1-14.9c-1.4,1.3-2,3.2-3.3,4.4c-1.4,1.3-3.5,2-5.3,2.9
	c-0.6-1.6-1.4-3.1-1.6-4.8c-0.2-1.6,0.1-3.3,0.3-5c0.7-6.9,1.3-13.8,2-21.3c-4.1,0.5-7.5,0.9-11.1,1.3c-0.8,7.6-1.3,14.9-2.3,22.2
	c-0.4,2.9-1.6,5.7-2.9,8.3c-0.4,0.8-2.4,1.3-3.5,1.1c-0.7-0.1-1.5-1.8-1.5-2.8c0-2.6,0.3-5.3,0.5-8c0.6-6.5,1.2-13.1,1.8-20.1
	c-4.1,0.5-7.4,0.9-11.3,1.4C165.1,45.5,163.9,55.1,163.8,64.7z M61,85.2c4.3,0.3,6-1.6,5.8-5.9c-0.1-3,0-6.2,1-8.9
	c0.8-2.1,3.2-3.6,4.8-5.4c1,1.8,2.2,3.6,2.8,5.5c0.4,1.4,0,3,0.1,4.5c0.4,5.5,3.8,8.3,9.4,7.9c7-0.5,12.3-7.3,11.7-15.8
	c-1.5,1.3-2.2,3.1-3.5,4.4c-1.4,1.4-3.3,2.2-5,3.3c-0.7-1.6-1.8-3.2-2.2-5c-0.6-2.9,0.1-6.5-1.4-8.6c-1.5-2-5.2-2.4-8.2-3.7
	c1.7-2.1,3.5-4.6,5.5-7.1c0.8,0.5,1.1,1,1.5,1c2.4,0.2,5,0.8,7,0.1c0.9-0.3,1.5-4.7,0.6-5.5c-1.6-1.5-4.6-2.6-6.6-2.2
	c-2.3,0.5-4.5,2.7-6.2,4.6c-3,3.4-5.7,7.2-9.3,11.8c0.5-5.6,0.8-9.9,1.2-14.6c-3.3,0.3-5.9,0.4-8.5,1c-1,0.2-2.5,1.4-2.6,2.2
	c-1.4,12-2.5,24.1-3.8,36.7C57.7,85.5,59.3,85.1,61,85.2z"/>
</svg>
