<?xml version="1.0" encoding="utf-8"?>
<!-- Generator: Adobe Illustrator 24.0.1, SVG Export Plug-In . SVG Version: 6.00 Build 0)  -->
<svg version="1.1" id="Layer_1" xmlns="http://www.w3.org/2000/svg" xmlns:xlink="http://www.w3.org/1999/xlink" x="0px" y="0px"
	 viewBox="0 0 80 80" style="enable-background:new 0 0 80 80;" xml:space="preserve">
<style type="text/css">
	.st0{fill:#E9A127;}
	.st1{fill:#FFFFFF;}
</style>
<path class="st0" d="M40,0L40,0c22.1,0,40,17.9,40,40l0,0c0,22.1-17.9,40-40,40l0,0C17.9,80,0,62.1,0,40l0,0C0,17.9,17.9,0,40,0z"/>
<path class="st1" d="M40,55c-0.1,0-0.3,0-0.4-0.1c0,0,0,0,0,0c0,0,0,0,0,0c-0.1,0-0.2-0.1-0.3-0.2c0,0,0,0,0,0c0,0,0,0,0,0l-10-9.9
	c-0.4-0.4-0.4-1,0-1.4s1-0.4,1.4,0l8.3,8.2V26c0-0.6,0.4-1,1-1s1,0.4,1,1v25.6l8.3-8.2c0.4-0.4,1-0.4,1.4,0c0.4,0.4,0.4,1,0,1.4
	l-10,9.9c0,0,0,0,0,0c-0.1,0.1-0.2,0.2-0.3,0.2C40.3,55,40.1,55,40,55z"/>
</svg>
