<?xml version="1.0" encoding="utf-8"?>
<!-- Generator: Adobe Illustrator 24.0.1, SVG Export Plug-In . SVG Version: 6.00 Build 0)  -->
<svg version="1.1" id="Layer_1" xmlns="http://www.w3.org/2000/svg" xmlns:xlink="http://www.w3.org/1999/xlink" x="0px" y="0px"
	 viewBox="0 0 33.8 33.8" style="enable-background:new 0 0 33.8 33.8;" xml:space="preserve">
<style type="text/css">
	.st0{fill:#121524;}
</style>
<path class="st0" d="M0.9,33.8c-0.2,0-0.5-0.1-0.7-0.3c-0.4-0.4-0.4-0.9,0-1.3L30.7,1.8H9.6c-0.5,0-0.9-0.4-0.9-0.9S9.1,0,9.6,0
	h23.3c0,0,0,0,0,0c0,0,0,0,0,0h0c0.1,0,0.2,0,0.3,0.1c0,0,0,0,0,0c0.1,0,0.2,0.1,0.3,0.2l0,0c0,0,0,0,0,0l0,0c0,0,0,0,0,0
	c0,0,0,0,0,0c0,0,0,0,0,0l0,0c0.1,0.1,0.1,0.2,0.2,0.3c0,0.1,0.1,0.2,0.1,0.4v20.3c0,0.5-0.4,0.9-0.9,0.9S32,21.8,32,21.2V3.2
	L1.6,33.6C1.4,33.8,1.2,33.8,0.9,33.8z"/>
</svg>
