<?xml version="1.0" encoding="utf-8"?>
<!-- Generator: Adobe Illustrator 24.0.1, SVG Export Plug-In . SVG Version: 6.00 Build 0)  -->
<svg version="1.1" id="Layer_1" xmlns="http://www.w3.org/2000/svg" xmlns:xlink="http://www.w3.org/1999/xlink" x="0px" y="0px"
	 viewBox="0 0 20 25" style="enable-background:new 0 0 20 25;" xml:space="preserve">
<style type="text/css">
	.st0{fill:#E9A127;}
</style>
<path class="st0" d="M0,15.9c0-0.2,0.1-0.4,0.2-0.5c0.3-0.3,0.8-0.3,1.2,0l7.9,7.1V0.8C9.3,0.4,9.6,0,10.1,0s0.8,0.3,0.8,0.8v21.7
	l7.7-7c0.3-0.3,0.8-0.3,1.2,0s0.3,0.8,0,1.1l-9.1,8.3c-0.1,0.1-0.1,0.1-0.2,0.1l0,0c-0.1,0-0.2,0.1-0.3,0.1l0,0l0,0l0,0l0,0l0,0l0,0
	l0,0l0,0l0,0l0,0l0,0l0,0l0,0c-0.1,0-0.2,0-0.3-0.1l0,0c-0.1,0-0.1-0.1-0.2-0.1l-9.4-8.4C0.1,16.3,0,16.1,0,15.9z"/>
</svg>
