<?xml version="1.0" encoding="utf-8"?>
<!-- Generator: Adobe Illustrator 24.0.1, SVG Export Plug-In . SVG Version: 6.00 Build 0)  -->
<svg version="1.1" id="Layer_1" xmlns="http://www.w3.org/2000/svg" xmlns:xlink="http://www.w3.org/1999/xlink" x="0px" y="0px"
	 viewBox="0 0 56 56" style="enable-background:new 0 0 56 56;" xml:space="preserve">
<style type="text/css">
	.st0{fill:#E9A127;}
	.st1{fill:#FFFFFF;}
</style>
<path class="st0" d="M0,28L0,28C0,12.5,12.5,0,28,0l0,0c15.5,0,28,12.5,28,28l0,0c0,15.5-12.5,28-28,28l0,0C12.5,56,0,43.5,0,28z"/>
<path class="st1" d="M31.5,37.5c-0.2,0-0.4-0.1-0.5-0.2c-0.3-0.3-0.3-0.8,0-1.1l7.3-7.5H16c-0.4,0-0.8-0.3-0.8-0.8s0.3-0.8,0.8-0.8
	h22.2L31,19.8c-0.3-0.3-0.3-0.8,0-1.1c0.3-0.3,0.8-0.3,1.1,0l8.5,8.7c0.1,0.1,0.1,0.1,0.1,0.2l0,0c0,0.1,0.1,0.2,0.1,0.3l0,0l0,0
	l0,0l0,0l0,0l0,0l0,0l0,0l0,0l0,0l0,0l0,0l0,0c0,0.1,0,0.2-0.1,0.3l0,0c0,0.1-0.1,0.1-0.1,0.2L32,37.3
	C31.9,37.4,31.7,37.5,31.5,37.5z"/>
</svg>
