<?xml version="1.0" encoding="utf-8"?>
<!-- Generator: Adobe Illustrator 24.0.1, SVG Export Plug-In . SVG Version: 6.00 Build 0)  -->
<svg version="1.1" id="Layer_1" xmlns="http://www.w3.org/2000/svg" xmlns:xlink="http://www.w3.org/1999/xlink" x="0px" y="0px"
	 viewBox="0 0 56 56" style="enable-background:new 0 0 56 56;" xml:space="preserve">
<style type="text/css">
	.st0{fill:#FFFFFF;}
</style>
<path class="st0" d="M56,28L56,28c0,15.5-12.5,28-28,28l0,0C12.5,56,0,43.5,0,28l0,0C0,12.5,12.5,0,28,0l0,0C43.5,0,56,12.5,56,28z"
	/>
<path d="M24.5,18.5c0.2,0,0.4,0.1,0.5,0.2c0.3,0.3,0.3,0.8,0,1.1l-7.3,7.5H40c0.4,0,0.8,0.3,0.8,0.8s-0.3,0.8-0.8,0.8H17.8l7.2,7.3
	c0.3,0.3,0.3,0.8,0,1.1c-0.3,0.3-0.8,0.3-1.1,0l-8.5-8.7c-0.1-0.1-0.1-0.1-0.1-0.2l0,0c0-0.1-0.1-0.2-0.1-0.3l0,0l0,0l0,0l0,0l0,0
	l0,0l0,0l0,0l0,0l0,0l0,0l0,0l0,0c0-0.1,0-0.2,0.1-0.3l0,0c0-0.1,0.1-0.1,0.1-0.2l8.6-8.9C24.1,18.6,24.3,18.5,24.5,18.5z"/>
</svg>
