<?xml version="1.0" encoding="utf-8"?>
<!-- Generator: Adobe Illustrator 24.0.1, SVG Export Plug-In . SVG Version: 6.00 Build 0)  -->
<svg version="1.1" id="Layer_1" xmlns="http://www.w3.org/2000/svg" xmlns:xlink="http://www.w3.org/1999/xlink" x="0px" y="0px"
	 viewBox="0 0 26 20" style="enable-background:new 0 0 26 20;" xml:space="preserve">
<path d="M9.4,0C9.6,0,9.9,0.1,10,0.2c0.3,0.3,0.3,0.8,0,1.2L2.5,9.3h22.6c0.4,0,0.8,0.3,0.8,0.8s-0.3,0.8-0.8,0.8H2.6l7.3,7.7
	c0.3,0.3,0.3,0.8,0,1.2s-0.8,0.3-1.1,0l-8.6-9.1c-0.1-0.1-0.1-0.1-0.1-0.2l0,0c0-0.1-0.1-0.2-0.1-0.3l0,0l0,0l0,0l0,0l0,0l0,0l0,0
	l0,0l0,0l0,0l0,0l0,0l0,0C0,10,0,9.9,0.1,9.8l0,0c0-0.1,0.1-0.1,0.1-0.2l8.7-9.4C9,0.1,9.2,0,9.4,0z"/>
</svg>
