<?xml version="1.0" encoding="utf-8"?>
<!-- Generator: Adobe Illustrator 24.0.1, SVG Export Plug-In . SVG Version: 6.00 Build 0)  -->
<svg version="1.1" id="Layer_1" xmlns="http://www.w3.org/2000/svg" xmlns:xlink="http://www.w3.org/1999/xlink" x="0px" y="0px"
	 viewBox="0 0 80 80" style="enable-background:new 0 0 80 80;" xml:space="preserve">
<style type="text/css">
	.st0{fill:#E9A127;}
	.st1{fill:#FFFFFF;}
</style>
<path class="st0" d="M40,80L40,80C17.9,80,0,62.1,0,40l0,0C0,17.9,17.9,0,40,0l0,0c22.1,0,40,17.9,40,40l0,0C80,62.1,62.1,80,40,80z
	"/>
<path class="st1" d="M40,25c0.1,0,0.3,0,0.4,0.1l0,0l0,0c0.1,0,0.2,0.1,0.3,0.2l0,0l0,0l10,9.9c0.4,0.4,0.4,1,0,1.4s-1,0.4-1.4,0
	L41,28.4V54c0,0.6-0.4,1-1,1s-1-0.4-1-1V28.4l-8.3,8.2c-0.4,0.4-1,0.4-1.4,0s-0.4-1,0-1.4l10-9.9l0,0c0.1-0.1,0.2-0.2,0.3-0.2
	C39.7,25,39.9,25,40,25z"/>
</svg>
