<?xml version="1.0" encoding="utf-8"?>
<!-- Generator: Adobe Illustrator 24.0.1, SVG Export Plug-In . SVG Version: 6.00 Build 0)  -->
<svg version="1.1" id="Layer_1" xmlns="http://www.w3.org/2000/svg" xmlns:xlink="http://www.w3.org/1999/xlink" x="0px" y="0px"
	 viewBox="0 0 20 25" style="enable-background:new 0 0 20 25;" xml:space="preserve">
<style type="text/css">
	.st0{fill:#E9A127;}
</style>
<path class="st0" d="M20,9.1c0,0.2-0.1,0.4-0.2,0.5c-0.3,0.3-0.8,0.3-1.2,0l-7.9-7.1v21.8c0,0.4-0.3,0.8-0.8,0.8s-0.8-0.3-0.8-0.8
	V2.5l-7.7,7c-0.3,0.3-0.8,0.3-1.2,0s-0.3-0.8,0-1.1l9.1-8.3c0.1-0.1,0.1-0.1,0.2-0.1l0,0C9.7,0.1,9.8,0,9.9,0l0,0l0,0l0,0l0,0l0,0
	l0,0l0,0l0,0l0,0l0,0l0,0l0,0l0,0c0.1,0,0.2,0,0.3,0.1l0,0c0.1,0,0.1,0.1,0.2,0.1l9.4,8.4C19.9,8.7,20,8.9,20,9.1z"/>
</svg>
