<?xml version="1.0" encoding="utf-8"?>
<!-- Generator: Adobe Illustrator 24.0.1, SVG Export Plug-In . SVG Version: 6.00 Build 0)  -->
<svg version="1.1" id="Layer_1" xmlns="http://www.w3.org/2000/svg" xmlns:xlink="http://www.w3.org/1999/xlink" x="0px" y="0px"
	 viewBox="0 0 633.6 2274.5" style="enable-background:new 0 0 633.6 2274.5;" xml:space="preserve">
<style type="text/css">
	.st0{fill:none;stroke:#D9D9D9;stroke-width:0.3;}
</style>
<path class="st0" d="M633.6-64.1c0,185.2-194.1,335.3-433.7,335.3c-239.5,0-433.7-150.2-433.7-335.3s194.1-335.3,433.7-335.3
	C439.5-399.5,633.6-249.3,633.6-64.1z"/>
<path class="st0" d="M358.3,356.9c0,142.7-114.8,258.4-256.3,258.4s-256.3-115.7-256.3-258.4S-39.5,98.5,102,98.5
	S358.3,214.2,358.3,356.9z"/>
<path class="st0" d="M544.1,773.8c0,156.1-125.5,282.6-280.4,282.6S-16.7,929.9-16.7,773.8s125.5-282.6,280.4-282.6
	C418.6,491.2,544.1,617.8,544.1,773.8z"/>
<path class="st0" d="M634,1124.1c0,139.3-112.1,252.2-250.4,252.2s-250.4-112.9-250.4-252.2S245.4,872,383.6,872
	S634,984.9,634,1124.1z"/>
<path class="st0" d="M638.5,673.3c0,139.3-112.1,252.2-250.4,252.2S137.7,812.6,137.7,673.3s112.1-252.1,250.4-252.1
	S638.5,534,638.5,673.3z"/>
<path class="st0" d="M132.3,870.2c0,139.3-112.1,252.2-250.4,252.2s-250.4-112.9-250.4-252.2S-256.3,618.1-118,618.1
	S132.3,730.9,132.3,870.2z"/>
<path class="st0" d="M655.7,309.7c0,139.3-112.1,252.2-250.4,252.2S154.9,449,154.9,309.7S267,57.6,405.3,57.6
	S655.7,170.4,655.7,309.7z"/>
<path class="st0" d="M479.7,1435.3c0,140-112.7,253.5-251.7,253.5s-251.7-113.5-251.7-253.5S89,1181.8,228,1181.8
	S479.7,1295.3,479.7,1435.3z"/>
<path class="st0" d="M882.3,571.3c0,140-112.7,253.5-251.7,253.5S378.9,711.3,378.9,571.3s112.7-253.5,251.7-253.5
	S882.3,431.3,882.3,571.3z"/>
<path class="st0" d="M114.3,1506.6c0,140-112.7,253.5-251.7,253.5s-251.7-113.5-251.7-253.5s112.7-253.5,251.7-253.5
	S114.3,1366.6,114.3,1506.6z"/>
<path class="st0" d="M1021.6,1847.2c0,140-112.7,253.5-251.7,253.5s-251.7-113.5-251.7-253.5s112.7-253.5,251.7-253.5
	S1021.6,1707.2,1021.6,1847.2z"/>
<path class="st0" d="M692.4,1713.5c0,140-112.7,253.5-251.7,253.5S189,1853.5,189,1713.5S301.7,1460,440.7,1460
	S692.4,1573.5,692.4,1713.5z"/>
<path class="st0" d="M530.8,2132.3c0,140-112.7,253.5-251.7,253.5S27.4,2272.3,27.4,2132.3s112.7-253.5,251.7-253.5
	S530.8,1992.3,530.8,2132.3z"/>
</svg>
