<?xml version="1.0" encoding="utf-8"?>
<!-- Generator: Adobe Illustrator 24.0.1, SVG Export Plug-In . SVG Version: 6.00 Build 0)  -->
<svg version="1.1" id="Layer_1" xmlns="http://www.w3.org/2000/svg" xmlns:xlink="http://www.w3.org/1999/xlink" x="0px" y="0px"
	 viewBox="0 0 633.6 2274.5" style="enable-background:new 0 0 633.6 2274.5;" xml:space="preserve">
<style type="text/css">
	.st0{fill:none;stroke:#D5D5D5;stroke-width:0.272;}
</style>
<path class="st0" d="M633.6-64.1c0,185.2-194.1,335.3-433.7,335.3c-239.5,0-433.7-150.2-433.7-335.3s194.1-335.3,433.7-335.3
	C439.5-399.5,633.6-249.3,633.6-64.1z"/>
<path class="st0" d="M358.3,356.9c0,142.7-114.8,258.4-256.3,258.4s-256.3-115.7-256.3-258.4c0-142.7,114.8-258.4,256.3-258.4
	S358.3,214.2,358.3,356.9z"/>
<path class="st0" d="M544.1,773.8c0,156.1-125.5,282.6-280.4,282.6c-154.9,0-280.4-126.5-280.4-282.6s125.5-282.6,280.4-282.6
	C418.6,491.2,544.1,617.8,544.1,773.8z"/>
<path class="st0" d="M550.4,1241.6c0,199-160.2,360.4-357.8,360.4s-357.8-161.3-357.8-360.4S-5,881.3,192.6,881.3
	S550.4,1042.6,550.4,1241.6z"/>
<path class="st0" d="M389.9,1763.6c0,140-112.7,253.5-251.7,253.5s-251.7-113.5-251.7-253.5s112.7-253.5,251.7-253.5
	S389.9,1623.6,389.9,1763.6z"/>
<path class="st0" d="M602.6,2041.8c0,140-112.7,253.5-251.7,253.5c-139,0-251.7-113.5-251.7-253.5s112.7-253.5,251.7-253.5
	C489.9,1788.3,602.6,1901.8,602.6,2041.8z"/>
<path class="st0" d="M441,2460.6c0,140-112.7,253.5-251.7,253.5s-251.7-113.5-251.7-253.5c0-140,112.7-253.5,251.7-253.5
	S441,2320.6,441,2460.6z"/>
</svg>
