<?xml version="1.0" encoding="utf-8"?>
<!-- Generator: Adobe Illustrator 24.0.1, SVG Export Plug-In . SVG Version: 6.00 Build 0)  -->
<svg version="1.1" id="Layer_1" xmlns="http://www.w3.org/2000/svg" xmlns:xlink="http://www.w3.org/1999/xlink" x="0px" y="0px"
	 viewBox="0 0 43 43" style="enable-background:new 0 0 43 43;" xml:space="preserve">
<style type="text/css">
	.st0{fill:#E9A127;}
	.st1{fill-rule:evenodd;clip-rule:evenodd;fill:#E9A127;}
</style>
<path class="st0" d="M29.6,17.6c0.6-0.6,0.6-1.5,0-2.1c-0.6-0.6-1.5-0.6-2.1,0l-8.9,8.9l-2.9-2.9c-0.6-0.6-1.5-0.6-2.1,0
	c-0.6,0.6-0.6,1.5,0,2.1l4,4c0.6,0.6,1.5,0.6,2.1,0L29.6,17.6z"/>
<path class="st1" d="M21.5,0C9.6,0,0,9.6,0,21.5S9.6,43,21.5,43S43,33.4,43,21.5S33.4,0,21.5,0z M3,21.5C3,11.3,11.3,3,21.5,3
	S40,11.3,40,21.5S31.7,40,21.5,40S3,31.7,3,21.5z"/>
</svg>
