<?xml version="1.0" encoding="utf-8"?>
<!-- Generator: Adobe Illustrator 24.0.1, SVG Export Plug-In . SVG Version: 6.00 Build 0)  -->
<svg version="1.1" id="Layer_1" xmlns="http://www.w3.org/2000/svg" xmlns:xlink="http://www.w3.org/1999/xlink" x="0px" y="0px"
	 viewBox="0 0 88 88" style="enable-background:new 0 0 88 88;" xml:space="preserve">
<style type="text/css">
	.st0{fill:#121524;}
	.st1{fill:#FFFFFF;}
</style>
<path class="st0" d="M44,0L44,0c24.3,0,44,19.7,44,44l0,0c0,24.3-19.7,44-44,44l0,0C19.7,88,0,68.3,0,44l0,0C0,19.7,19.7,0,44,0z"/>
<path class="st1" d="M59,60c-0.3,0-0.5-0.1-0.7-0.3L44,45.4L29.7,59.7c-0.4,0.4-1,0.4-1.4,0C28.1,59.5,28,59.3,28,59
	s0.1-0.5,0.3-0.7L42.6,44L28.3,29.7c-0.4-0.4-0.4-1,0-1.4s1-0.4,1.4,0L44,42.6l14.3-14.3c0.4-0.4,1-0.4,1.4,0s0.4,1,0,1.4L45.4,44
	l14.3,14.3c0.4,0.4,0.4,1,0,1.4C59.5,59.9,59.3,60,59,60z"/>
</svg>
