<?xml version="1.0" encoding="utf-8"?>
<!-- Generator: Adobe Illustrator 24.0.1, SVG Export Plug-In . SVG Version: 6.00 Build 0)  -->
<svg version="1.1" id="Layer_1" xmlns="http://www.w3.org/2000/svg" xmlns:xlink="http://www.w3.org/1999/xlink" x="0px" y="0px"
	 viewBox="0 0 34 34" style="enable-background:new 0 0 34 34;" xml:space="preserve">
<style type="text/css">
	.st0{fill:#E9A127;}
	.st1{fill:#FFFFFF;}
</style>
<path class="st0" d="M17,34L17,34C7.6,34,0,26.4,0,17l0,0C0,7.6,7.6,0,17,0l0,0c9.4,0,17,7.6,17,17l0,0C34,26.4,26.4,34,17,34z"/>
<path class="st1" d="M17,12.6c0.2,0,0.4,0.1,0.5,0.2l5.3,5.2c0.3,0.3,0.3,0.8,0,1.1c-0.3,0.3-0.8,0.3-1.1,0l-4.8-4.6l-4.8,4.6
	c-0.3,0.3-0.8,0.3-1.1,0c-0.3-0.3-0.3-0.8,0-1.1l5.3-5.2C16.6,12.7,16.8,12.6,17,12.6z"/>
</svg>
