<?xml version="1.0" encoding="utf-8"?>
<!-- Generator: Adobe Illustrator 24.0.1, SVG Export Plug-In . SVG Version: 6.00 Build 0)  -->
<svg version="1.1" id="Layer_1" xmlns="http://www.w3.org/2000/svg" xmlns:xlink="http://www.w3.org/1999/xlink" x="0px" y="0px"
	 viewBox="0 0 26 26" style="enable-background:new 0 0 26 26;" xml:space="preserve">
<style type="text/css">
	.st0{fill:#E9A127;}
</style>
<path class="st0" d="M18,25.5H8c-3.7,0-5.5,0-6.8-1.2C0,23,0,21.2,0,17.5v-1.3c0-3.7,0-5.5,1.2-6.8c1.2-1.2,2.9-1.2,5.6-1.2v1
	c-2.7,0-4,0.1-4.8,1c-1,1-1,2.7-1,6v1.3c0,3.4,0,5.1,1,6c1,1,2.7,1,6,1h10c3.4,0,5.1,0,6-1c1-1,1-2.7,1-6v-1.2c0-3.4,0-5.1-1-6
	c-0.8-0.8-2.1-1-4.8-1v-1c2.7,0,4.4,0.1,5.6,1.2c1.2,1.2,1.2,3.1,1.2,6.8v1.2c0,3.7,0,5.5-1.2,6.8C23.5,25.5,21.7,25.5,18,25.5z"/>
<polygon class="st0" points="13.4,16.5 13.1,16.3 12.9,16.3 12.6,16.5 8.8,12.1 9.6,11.5 12.5,14.9 12.5,0 13.5,0 13.5,14.9 
	16.4,11.5 17.2,12.1 "/>
</svg>
