<?xml version="1.0" encoding="utf-8"?>
<!-- Generator: Adobe Illustrator 24.0.1, SVG Export Plug-In . SVG Version: 6.00 Build 0)  -->
<svg version="1.1" id="Layer_1" xmlns="http://www.w3.org/2000/svg" xmlns:xlink="http://www.w3.org/1999/xlink" x="0px" y="0px"
	 viewBox="0 0 64 64" style="enable-background:new 0 0 64 64;" xml:space="preserve">
<style type="text/css">
	.st0{fill:#E9A127;}
	.st1{fill:none;stroke:#FFFFFF;stroke-width:1.7803;stroke-linecap:round;}
	.st2{fill:none;stroke:#FFFFFF;stroke-width:1.7803;stroke-linecap:round;stroke-linejoin:round;}
</style>
<path class="st0" d="M32,0L32,0c17.7,0,32,14.3,32,32l0,0c0,17.7-14.3,32-32,32l0,0C14.3,64,0,49.7,0,32l0,0C0,14.3,14.3,0,32,0z"/>
<path class="st1" d="M38.2,28.3c2.7,0,4.2,0.1,5.2,1.1c1.1,1.1,1.1,2.9,1.1,6.4V37c0,3.5,0,5.3-1.1,6.4c-1.1,1.1-2.9,1.1-6.4,1.1H27
	c-3.5,0-5.3,0-6.4-1.1s-1.1-2.9-1.1-6.4v-1.3c0-3.5,0-5.3,1.1-6.4c1-1,2.4-1.1,5.2-1.1"/>
<path class="st2" d="M32,19.5v16.3 M32,35.7l-3.8-4.4 M32,35.7l3.8-4.4"/>
</svg>
