<?xml version="1.0" encoding="utf-8"?>
<!-- Generator: Adobe Illustrator 24.0.1, SVG Export Plug-In . SVG Version: 6.00 Build 0)  -->
<svg version="1.1" id="Layer_1" xmlns="http://www.w3.org/2000/svg" xmlns:xlink="http://www.w3.org/1999/xlink" x="0px" y="0px"
	 viewBox="0 0 19 16" style="enable-background:new 0 0 19 16;" xml:space="preserve">
<style type="text/css">
	.st0{fill:#FFFFFF;}
</style>
<path class="st0" d="M17.9,6.3H1.1C0.5,6.3,0,6.8,0,7.5v1.1c0,0.6,0.5,1.1,1.1,1.1h16.8c0.6,0,1.1-0.5,1.1-1.1V7.5
	C19,6.8,18.5,6.3,17.9,6.3z"/>
<path class="st0" d="M17.9,0H1.1C0.5,0,0,0.5,0,1.1v1.1c0,0.6,0.5,1.1,1.1,1.1h16.8c0.6,0,1.1-0.5,1.1-1.1V1.1C19,0.5,18.5,0,17.9,0
	z"/>
<path class="st0" d="M17.9,12.6H1.1c-0.6,0-1.1,0.5-1.1,1.1v1.1C0,15.5,0.5,16,1.1,16h16.8c0.6,0,1.1-0.5,1.1-1.1v-1.1
	C19,13.1,18.5,12.6,17.9,12.6z"/>
</svg>
