<?xml version="1.0" encoding="utf-8"?>
<!-- Generator: Adobe Illustrator 24.0.1, SVG Export Plug-In . SVG Version: 6.00 Build 0)  -->
<svg version="1.1" id="Layer_1" xmlns="http://www.w3.org/2000/svg" xmlns:xlink="http://www.w3.org/1999/xlink" x="0px" y="0px"
	 viewBox="0 0 33 31" style="enable-background:new 0 0 33 31;" xml:space="preserve">
<style type="text/css">
	.st0{fill:#121524;}
</style>
<path class="st0" d="M2,0h10c1.1,0,2,0.9,2,2v10c0,1.1-0.9,2-2,2H2c-1.1,0-2-0.9-2-2V2C0,0.9,0.9,0,2,0z"/>
<path class="st0" d="M2,17h10c1.1,0,2,0.9,2,2v10c0,1.1-0.9,2-2,2H2c-1.1,0-2-0.9-2-2V19C0,17.9,0.9,17,2,17z"/>
<path class="st0" d="M21,0h10c1.1,0,2,0.9,2,2v10c0,1.1-0.9,2-2,2H21c-1.1,0-2-0.9-2-2V2C19,0.9,19.9,0,21,0z"/>
<path class="st0" d="M21,17h10c1.1,0,2,0.9,2,2v10c0,1.1-0.9,2-2,2H21c-1.1,0-2-0.9-2-2V19C19,17.9,19.9,17,21,17z"/>
</svg>
