<?xml version="1.0" encoding="utf-8"?>
<!-- Generator: Adobe Illustrator 24.0.1, SVG Export Plug-In . SVG Version: 6.00 Build 0)  -->
<svg version="1.1" id="Layer_1" xmlns="http://www.w3.org/2000/svg" xmlns:xlink="http://www.w3.org/1999/xlink" x="0px" y="0px"
	 viewBox="0 0 28 28" style="enable-background:new 0 0 28 28;" xml:space="preserve">
<style type="text/css">
	.st0{fill:#8D8D8D;}
</style>
<path class="st0" d="M14,28C6.3,28,0,21.7,0,14C0,6.3,6.3,0,14,0c7.7,0,14,6.3,14,14C28,21.7,21.7,28,14,28z M14,1.1
	C6.9,1.1,1.1,6.9,1.1,14c0,7.1,5.8,12.9,12.9,12.9c7.1,0,12.9-5.8,12.9-12.9C26.9,6.9,21.1,1.1,14,1.1z"/>
<path class="st0" d="M9.7,18.9c-0.1,0-0.3-0.1-0.4-0.2c-0.2-0.2-0.2-0.6,0-0.8l4.2-4.2V4.9c0-0.3,0.2-0.6,0.6-0.6s0.6,0.2,0.6,0.6
	V14c0,0,0,0.1,0,0.1l0,0c0,0,0,0.1,0,0.1l0,0c0,0,0,0,0,0.1c0,0,0,0,0,0c0,0,0,0,0,0l-4.3,4.3C10,18.8,9.8,18.9,9.7,18.9L9.7,18.9z"
	/>
</svg>
