<?xml version="1.0" encoding="utf-8"?>
<!-- Generator: Adobe Illustrator 24.0.1, SVG Export Plug-In . SVG Version: 6.00 Build 0)  -->
<svg version="1.1" id="Layer_1" xmlns="http://www.w3.org/2000/svg" xmlns:xlink="http://www.w3.org/1999/xlink" x="0px" y="0px"
	 viewBox="0 0 33 31" style="enable-background:new 0 0 33 31;" xml:space="preserve">
<style type="text/css">
	.st0{fill:#121524;}
</style>
<path class="st0" d="M2,0h10c1.1,0,2,0.9,2,2v10c0,1.1-0.9,2-2,2H2c-1.1,0-2-0.9-2-2V2C0,0.9,0.9,0,2,0z"/>
<path class="st0" d="M18.7,0h12.6c1,0,1.8,0.8,1.8,1.8l0,0c0,1-0.8,1.8-1.8,1.8H18.7c-1,0-1.8-0.8-1.8-1.8l0,0
	C16.9,0.8,17.7,0,18.7,0z"/>
<path class="st0" d="M18.7,5.3h12.6C32.2,5.3,33,6,33,7l0,0c0,1-0.8,1.8-1.8,1.8H18.7c-1,0-1.8-0.8-1.8-1.8l0,0
	C16.9,6,17.7,5.3,18.7,5.3z"/>
<path class="st0" d="M18.7,10.5h12.6c1,0,1.8,0.8,1.8,1.8l0,0c0,1-0.8,1.8-1.8,1.8H18.7c-1,0-1.8-0.8-1.8-1.8l0,0
	C16.9,11.3,17.7,10.5,18.7,10.5z"/>
<path class="st0" d="M2,17h10c1.1,0,2,0.9,2,2v10c0,1.1-0.9,2-2,2H2c-1.1,0-2-0.9-2-2V19C0,17.9,0.9,17,2,17z"/>
<path class="st0" d="M18.7,17h12.6c1,0,1.8,0.8,1.8,1.8l0,0c0,1-0.8,1.8-1.8,1.8H18.7c-1,0-1.8-0.8-1.8-1.8l0,0
	C16.9,17.8,17.7,17,18.7,17z"/>
<path class="st0" d="M18.7,22.3h12.6c1,0,1.8,0.8,1.8,1.8l0,0c0,1-0.8,1.8-1.8,1.8H18.7c-1,0-1.8-0.8-1.8-1.8l0,0
	C16.9,23,17.7,22.3,18.7,22.3z"/>
<path class="st0" d="M18.7,27.5h12.6c1,0,1.8,0.8,1.8,1.8l0,0c0,1-0.8,1.8-1.8,1.8H18.7c-1,0-1.8-0.8-1.8-1.8l0,0
	C16.9,28.3,17.7,27.5,18.7,27.5z"/>
</svg>
