<?xml version="1.0" encoding="utf-8"?>
<!-- Generator: Adobe Illustrator 24.0.1, SVG Export Plug-In . SVG Version: 6.00 Build 0)  -->
<svg version="1.1" id="Layer_1" xmlns="http://www.w3.org/2000/svg" xmlns:xlink="http://www.w3.org/1999/xlink" x="0px" y="0px"
	 viewBox="0 0 181.6 31.3" style="enable-background:new 0 0 181.6 31.3;" xml:space="preserve">
<style type="text/css">
	.st0{fill:#121524;}
	.st1{fill:#F3A016;}
</style>
<path class="st0" d="M3.9,3.6H1.6C0.7,3.6,0,4.3,0,5.2v18.9c0,0.9,0.7,1.6,1.6,1.6h2.3c0.9,0,1.6-0.7,1.6-1.6V5.2
	C5.5,4.3,4.8,3.6,3.9,3.6z"/>
<path class="st0" d="M25.7,23.3c0.4,0.3,0.5,0.7,0.5,1.1s-0.2,0.8-0.5,1.1l-0.2,0.1h-6.1l-8.3-7l-4.5-4l4.5-3.6l8.7-7.4h5.4l0.5,0.5
	c0.3,0.3,0.5,0.7,0.5,1.1S26,6,25.7,6.3l-10,8.3L25.7,23.3L25.7,23.3z"/>
<path class="st0" d="M83.7,3.6l-10,15l-10-15h-5.5v22.1h5.5V13.9l7.8,11.7h4.4l7.8-11.7v11.7h5.5v-22H83.7z"/>
<path class="st0" d="M120.9,0h-29v6.6h24.9v9.3h-16l0.4,0.5l4.6,5.7l0.1,0.1l0,0l7.3,9.1h10.2l-7.3-9.1h4.8c1.6,0,3-1.4,3-3.1v-16
	C123.8,1.4,122.5,0,120.9,0L120.9,0z"/>
<path class="st0" d="M151.1,12.2H128c-0.9,0-1.6,0.7-1.6,1.6v1.6c0,0.9,0.7,1.6,1.6,1.6h23.2c0.9,0,1.6-0.7,1.6-1.6v-1.6
	C152.7,12.9,152,12.2,151.1,12.2z"/>
<path class="st0" d="M151.1,3.6H128c-0.9,0-1.6,0.7-1.6,1.6v1.6c0,0.9,0.7,1.6,1.6,1.6h23.2c0.9,0,1.6-0.7,1.6-1.6V5.1
	C152.7,4.3,152,3.6,151.1,3.6z"/>
<path class="st0" d="M151.1,20.9H128c-0.9,0-1.6,0.7-1.6,1.6V24c0,0.9,0.7,1.6,1.6,1.6h23.2c0.9,0,1.6-0.7,1.6-1.6v-1.6
	C152.7,21.6,152,20.9,151.1,20.9z"/>
<path class="st0" d="M172.3,14.8l8.8-8.5c0.3-0.3,0.5-0.7,0.5-1.1s-0.1-0.8-0.4-1.1l-0.4-0.5H176l-7.6,7.4l-7.6-7.4h-4.7l-0.4,0.5
	c-0.6,0.6-0.6,1.6,0,2.2l8.8,8.5l-8.8,8.5c-0.6,0.6-0.6,1.6,0,2.2l0.1,0.1h5.3l7.3-7l7.3,7h5.3l0.1-0.1c0.3-0.3,0.4-0.7,0.4-1.1
	s-0.2-0.8-0.5-1.1L172.3,14.8z"/>
<path class="st1" d="M42.2,27c-7.4,0-13.3-5.5-13.3-12.4c0-6.8,6-12.4,13.3-12.4s13.3,5.5,13.3,12.4C55.5,21.4,49.5,27,42.2,27z
	 M42.2,2.8c-7,0-12.8,5.3-12.8,11.8s5.7,11.8,12.8,11.8c7,0,12.8-5.3,12.8-11.8C54.9,8.1,49.2,2.8,42.2,2.8z"/>
<path class="st1" d="M35.1,7.4C35.3,7.2,35.6,7,35.9,7c0.3,0,0.5,0.1,0.7,0.2l0,0l3.6,3c0.1-0.9,0.9-1.5,1.8-1.5h2.7
	c1,0,1.8,0.8,1.8,1.8v2H50V9.7c0-0.2,0.2-0.4,0.4-0.4h2.2v0.9H51v2.3h1.9c0.5,0,1,0.2,1.3,0.5c-0.8-5.4-5.9-9.5-12-9.5
	c-5.7,0-10.5,3.7-11.8,8.6l0,0L35.1,7.4z"/>
<path class="st1" d="M44.7,17.7L44.7,17.7H42l0,0h-0.1l0,0c-0.9,0-1.7-0.8-1.7-1.7v-2.8L36,9.7l-3.6,3.6L32,13.7
	c0.3,0.3,0.6,0.4,0.9,0.6c1.2,0.6,2.7-0.4,2.5,0.6c-0.3,1-1.9,2.9-4.1,2.5c-0.4-0.1-0.7-0.3-1-0.5c1.1,5.1,6,8.9,11.8,8.9
	c3.4,0,6.4-1.3,8.6-3.3H39.4c-0.9,0-1.7-0.9-1.7-1.9V20c0-1.1,0.7-1.9,1.7-1.9h14.3c0-0.1,0.1-0.2,0.1-0.2h-9.1V17.7z"/>
</svg>
