<?xml version="1.0" encoding="utf-8"?>
<!-- Generator: Adobe Illustrator 24.0.1, SVG Export Plug-In . SVG Version: 6.00 Build 0)  -->
<svg version="1.1" id="Layer_1" xmlns="http://www.w3.org/2000/svg" xmlns:xlink="http://www.w3.org/1999/xlink" x="0px" y="0px"
	 viewBox="0 0 49 49" style="enable-background:new 0 0 49 49;" xml:space="preserve">
<style type="text/css">
	.st0{fill:#FFFFFF;}
	.st1{fill:none;stroke:#000000;stroke-width:1.5;stroke-linecap:round;}
</style>
<path class="st0" d="M24.5,0L24.5,0C38,0,49,11,49,24.5l0,0C49,38,38,49,24.5,49l0,0C11,49,0,38,0,24.5l0,0C0,11,11,0,24.5,0z"/>
<path class="st1" d="M22.4,17.5l0.8,1.4c0.7,1.2,0.4,2.8-0.7,3.9l0,0c0,0-1.3,1.3,1.1,3.7c2.4,2.4,3.7,1.1,3.7,1.1l0,0
	c1.1-1.1,2.7-1.4,3.9-0.7l1.4,0.8c1.8,1,2.1,3.6,0.4,5.2c-1,1-2.2,1.7-3.5,1.8c-2.2,0.1-6-0.5-9.8-4.3c-3.8-3.8-4.4-7.6-4.3-9.8
	c0.1-1.3,0.8-2.5,1.8-3.5C18.8,15.5,21.3,15.7,22.4,17.5z"/>
</svg>
