<?xml version="1.0" encoding="utf-8"?>
<!-- Generator: Adobe Illustrator 24.0.1, SVG Export Plug-In . SVG Version: 6.00 Build 0)  -->
<svg version="1.1" id="Layer_1" xmlns="http://www.w3.org/2000/svg" xmlns:xlink="http://www.w3.org/1999/xlink" x="0px" y="0px"
	 viewBox="0 0 109 97" style="enable-background:new 0 0 109 97;" xml:space="preserve">
<style type="text/css">
	.st0{fill:#E9A127;}
</style>
<path class="st0" d="M0,97V71.5c0-7.8,1.4-16,4.1-24.7C7,38,11.1,29.5,16.4,21.4C21.8,13.2,28.4,6.1,36,0l18.3,14.7
	c-6,8.5-11.2,17.4-15.7,26.7c-4.4,9.2-6.6,19-6.6,29.5V97H0z M54.7,97V71.5c0-7.8,1.4-16,4.1-24.7c2.9-8.8,6.9-17.3,12.3-25.4
	C76.6,13.2,83.1,6.1,90.7,0L109,14.7c-6,8.5-11.2,17.4-15.7,26.7c-4.4,9.2-6.6,19-6.6,29.5V97H54.7z"/>
</svg>
