<?xml version="1.0" encoding="utf-8"?>
<!-- Generator: Adobe Illustrator 24.0.1, SVG Export Plug-In . SVG Version: 6.00 Build 0)  -->
<svg version="1.1" id="Layer_1" xmlns="http://www.w3.org/2000/svg" xmlns:xlink="http://www.w3.org/1999/xlink" x="0px" y="0px"
	 viewBox="0 0 109 97" style="enable-background:new 0 0 109 97;" xml:space="preserve">
<style type="text/css">
	.st0{fill:#E9A127;}
</style>
<path class="st0" d="M109,0v25.5c0,7.8-1.4,16-4.1,24.7C102,59,97.9,67.5,92.6,75.6C87.2,83.8,80.6,90.9,73,97L54.7,82.3
	c6-8.5,11.2-17.4,15.7-26.7c4.4-9.2,6.6-19,6.6-29.5V0H109z M54.3,0v25.5c0,7.8-1.4,16-4.1,24.7c-2.9,8.8-6.9,17.3-12.3,25.4
	C32.4,83.8,25.9,90.9,18.3,97L0,82.3c6-8.5,11.2-17.4,15.7-26.7c4.4-9.2,6.6-19,6.6-29.5V0H54.3z"/>
</svg>
