<?xml version="1.0" encoding="utf-8"?>
<!-- Generator: Adobe Illustrator 24.0.1, SVG Export Plug-In . SVG Version: 6.00 Build 0)  -->
<svg version="1.1" id="Layer_1" xmlns="http://www.w3.org/2000/svg" xmlns:xlink="http://www.w3.org/1999/xlink" x="0px" y="0px"
	 viewBox="0 0 166 120" style="enable-background:new 0 0 166 120;" xml:space="preserve">
<style type="text/css">
	.st0{fill:#121524;}
	.st1{fill:#D19584;}
	.st2{fill:#F7F7F5;}
	.st3{fill:#F7E6D2;}
	.st4{fill:#E9A127;}
	.st5{fill:#FFFFFF;filter:url(#Adobe_OpacityMaskFilter);}
	.st6{mask:url(#path-10-inside-1_1246_2004_1_);fill:#121524;}
	.st7{fill:#FFFFFF;filter:url(#Adobe_OpacityMaskFilter_1_);}
	.st8{mask:url(#path-12-inside-2_1246_2004_1_);fill:#121524;}
	.st9{fill:#FFFFFF;filter:url(#Adobe_OpacityMaskFilter_2_);}
	.st10{mask:url(#path-14-inside-3_1246_2004_1_);fill:#121524;}
</style>
<g>
	<path class="st0" d="M112.7,80.3l0.1,0.2c0.1,0.2,0,0.5,0,0.7v0c-0.7,2.5-2.8,4.4-5.4,4.8l-0.7,0.1l-0.2,0.7
		c-0.6,2.4-2.6,4.2-5.1,4.4c0,0,0,0,0,0l-2,0.2l-0.4,0l-0.3,0.4c-1.4,1.9-3.6,3-5.9,3h-1.7h-0.4L90.4,95c-1.3,1.3-3.1,2.1-5,2.1
		c-0.5,0-1-0.1-1.4-0.4l0,0c-2.9-1.7-12.3-7.4-21.5-13.5c-4.6-3.1-9.1-6.2-12.7-9c-1.8-1.4-3.3-2.7-4.6-3.9c-1-1-1.8-1.8-2.2-2.5
		l9.6-25.8c1.8-0.4,6.7-1.3,13-1.8c6.1-0.5,13.4-0.8,20.2-0.2l-7.3,4.4c-0.5,0.2-1.2,0.4-2,0.7c-0.9,0.3-1.8,0.6-2.8,1
		c-0.9,0.4-1.8,0.8-2.6,1.3c-0.7,0.5-1.4,1.2-1.6,2.2l0,0l0,0l-1.5,12c0,0.1,0,0.1,0,0.2c-0.1,0.8-0.3,1.9-0.2,2.8
		c0.1,1.1,0.5,2.3,1.9,2.8l0,0c1.3,0.4,2.3,0.1,3.1-0.5c0.4-0.2,0.8-0.5,1.1-0.8l0,0c0.4-0.3,0.7-0.6,1.1-0.8c1.2-0.8,2-2,2.5-3.2
		l0,0l3-6.1c0.2-0.4,0.7-0.7,1.1-0.8l0,0l3-0.3c0.6-0.1,1.2,0.1,1.6,0.6l0,0l25.8,23.7c0,0,0,0.1,0,0.1
		C112.5,79.8,112.6,80.1,112.7,80.3z"/>
	<path class="st0" d="M85.4,98.1c-0.7,0-1.3-0.2-1.9-0.5C80.8,96,71.2,90.2,62,84.1c-5.2-3.5-9.5-6.5-12.7-9
		c-1.9-1.5-3.4-2.8-4.6-3.9c-1.1-1-1.9-1.9-2.4-2.7L42,68l9.9-26.7l0.5-0.1c1.8-0.4,6.8-1.3,13.1-1.8c5.2-0.5,12.9-0.9,20.4-0.2
		l3,0.3l-10,6c-0.5,0.2-1.2,0.4-2.1,0.7c-0.9,0.3-1.8,0.6-2.7,0.9c-1,0.4-1.8,0.8-2.4,1.2c-0.7,0.5-1.1,1-1.2,1.6l-1.5,12.3
		c-0.1,0.8-0.3,1.8-0.2,2.6c0.1,1.6,1,1.8,1.2,1.9c0.8,0.3,1.5,0.2,2.3-0.4c0.3-0.2,0.7-0.5,1-0.7c0.4-0.3,0.8-0.6,1.2-0.9
		c1.1-0.7,1.7-1.8,2.2-2.8l3-6.1c0.4-0.7,1.1-1.2,1.9-1.3l3-0.3c0.9-0.1,1.8,0.2,2.4,0.8l26,23.9l0.2,0.5c0.1,0.3,0.2,0.5,0.2,0.7
		l0.1,0.3c0.1,0.4,0.1,0.8,0,1.2c-0.8,2.9-3.3,5.1-6.3,5.5l0,0c-0.7,2.8-3.1,4.9-6,5.2l-2,0.2c-1.6,2.1-4.1,3.4-6.7,3.4h-1.7
		C89.6,97.3,87.6,98.1,85.4,98.1z M44.2,67.7c0.4,0.5,1,1.2,1.8,1.9c1.1,1.1,2.6,2.4,4.5,3.8c3.2,2.5,7.5,5.5,12.6,9
		c9.2,6.1,18.7,11.8,21.4,13.5c0.3,0.2,0.6,0.2,0.9,0.2c1.6,0,3.2-0.6,4.3-1.8l0.6-0.6h2.5c2,0,3.9-1,5.1-2.6l0.5-0.7l2.9-0.3
		c2.1-0.2,3.7-1.7,4.2-3.7l0.3-1.3l1.4-0.2c2.2-0.3,4-1.9,4.6-4c0-0.1,0-0.1,0-0.2l0-0.1c-0.1-0.2-0.1-0.4-0.2-0.7l0,0L85.9,56.4
		c-0.2-0.2-0.6-0.3-0.9-0.3l-3,0.3c-0.1,0-0.3,0.1-0.3,0.2l-3,6.1c-0.6,1.2-1.4,2.6-2.9,3.6c-0.4,0.2-0.7,0.5-1,0.8
		c-0.4,0.3-0.8,0.6-1.2,0.9c-1.3,0.8-2.6,1-3.9,0.6c-1.5-0.5-2.5-1.8-2.6-3.7c-0.1-1.1,0.1-2.2,0.2-3.1l0-0.2l1.5-12
		c0.2-1.1,0.8-2.1,2-2.9c0.7-0.5,1.6-1,2.8-1.4c1-0.4,1.9-0.7,2.8-1c0.8-0.2,1.4-0.5,1.9-0.6l4.5-2.7c-6.3-0.3-12.5,0-16.9,0.4
		C60,41.8,55.5,42.5,53.4,43L44.2,67.7z"/>
</g>
<g>
	<path class="st1" d="M107.2,87.1c-1.2-1-2.4-1.9-3.6-2.9l-3.5-3l-3.5-3c-1.2-1-2.3-2.1-3.5-3.1c1.2,1,2.4,1.9,3.6,2.9l3.5,3l3.5,3
		C104.9,85,106.1,86,107.2,87.1z"/>
	<path class="st2" d="M107.2,88c-0.2,0-0.4-0.1-0.6-0.2c-1.2-1-2.4-2-3.6-2.9l-3.6-3l-3.5-3.1c-1.2-1-2.3-2.1-3.5-3.1
		c-0.4-0.4-0.4-1-0.1-1.4c0.3-0.4,1-0.5,1.4-0.1c1.2,1,2.4,1.9,3.6,2.9l3.5,3l3.5,3.1c1.2,1,2.3,2.1,3.5,3.1c0.4,0.4,0.4,1,0.1,1.4
		C107.8,87.9,107.5,88,107.2,88z"/>
</g>
<g>
	<path class="st1" d="M99.5,92.6c-1.2-1-2.4-2-3.6-3l-3.5-3.1l-3.5-3.2c-1.2-1.1-2.3-2.1-3.4-3.2c1.2,1,2.4,2,3.6,3l3.5,3.1l3.5,3.2
		C97.2,90.4,98.3,91.5,99.5,92.6z"/>
	<path class="st2" d="M99.5,93.6c-0.2,0-0.4-0.1-0.6-0.2c-1.2-1-2.4-2-3.6-3.1l-3.5-3.1L88.2,84c-1.2-1.1-2.3-2.1-3.4-3.2
		c-0.4-0.4-0.4-1,0-1.4c0.4-0.4,1-0.4,1.4-0.1c1.2,1,2.4,2,3.6,3.1l3.5,3.1l3.5,3.2c1.2,1.1,2.3,2.1,3.4,3.2c0.4,0.4,0.4,1,0,1.4
		C100,93.5,99.7,93.6,99.5,93.6z"/>
</g>
<g>
	<path class="st1" d="M90.9,95.4c-1.1-0.9-2.2-1.8-3.3-2.7L84.4,90l-3.2-2.8c-1.1-0.9-2.1-1.9-3.1-2.8c1.1,0.9,2.2,1.8,3.3,2.7
		l3.2,2.7l3.2,2.8C88.8,93.5,89.8,94.4,90.9,95.4L90.9,95.4z"/>
	<path class="st2" d="M90.9,96.3c-0.2,0-0.4-0.1-0.6-0.2c-1.1-0.9-2.2-1.8-3.3-2.7l-3.2-2.7L80.5,88c-1.1-0.9-2.1-1.9-3.2-2.8
		c-0.4-0.4-0.4-1-0.1-1.4c0.3-0.4,0.9-0.5,1.4-0.1c1.1,0.9,2.2,1.8,3.3,2.7l3.2,2.7l3.2,2.8c1.1,0.9,2.1,1.9,3.2,2.8
		c0.4,0.4,0.4,1,0.1,1.4C91.4,96.2,91.2,96.3,90.9,96.3z"/>
</g>
<g>
	<path class="st3" d="M53,41.5L53,41.5l-9.9,26.7l-2.9,7.9c-0.2,0.5-0.8,0.8-1.4,0.5l-7-3.5c-0.5-0.2-0.7-0.8-0.5-1.3l13.6-33.2
		c0.2-0.5,0.8-0.8,1.3-0.5l6.7,3.1C53,41.3,53,41.4,53,41.5z"/>
	<path class="st0" d="M39.2,77.8c-0.3,0-0.6-0.1-0.9-0.2l-7-3.5c-0.9-0.5-1.3-1.6-1-2.5l13.6-33.2c0.2-0.5,0.6-0.9,1.1-1.1
		c0.5-0.2,1.1-0.2,1.5,0l6.7,3.1c0.6,0.3,0.8,0.9,0.7,1.5l0,0.1L41.1,76.5c-0.2,0.5-0.6,0.9-1.1,1.1C39.7,77.7,39.5,77.8,39.2,77.8z
		 M45.7,39.1L32.2,72.3l7,3.5l12.6-34L45.7,39.1z M52.1,41.2C52.1,41.2,52.1,41.2,52.1,41.2L52.1,41.2z"/>
</g>
<g>
	<path class="st0" d="M19.1,24.8L19.1,24.8L19.1,24.8l24.9,11.4c1,0.4,1.4,1.6,1,2.5L27,82.6c-0.4,1-1.6,1.5-2.7,1L20.7,82L2.2,71.8
		c-0.6-0.3-0.9-0.9-1-1.5c-0.1-0.7-0.1-1.5-0.1-2.2l0,0l0,0c0-0.1,0-0.2,0-0.3v0l0,0c0-0.5,0-1-0.1-1.5l0,0c0-0.7,0-1.3,0-2
		c0-0.7,0-1.5,0-2.2l0,0c0-0.1,0-0.2,0-0.3l0,0c0-0.1,0-0.2,0-0.3c0-0.2,0-0.3,0-0.5c0-0.3,0-0.7,0-1l0-0.4l0-0.4h0l0,0
		c0-0.5,0.1-0.9,0.1-1.4c0,0,0,0,0,0l0-0.4l0-0.4c0,0,0,0,0,0c0-0.5,0.1-0.9,0.1-1.4c0-0.1,0-0.2,0-0.4l0,0c0-0.1,0-0.2,0-0.4l0,0
		c0.1-0.5,0.1-1,0.2-1.5l0,0c0,0,0,0,0-0.1c0-0.2,0.1-0.4,0.1-0.6h0l0,0c0.1-0.5,0.2-1,0.3-1.6l0,0l0,0c0-0.2,0.1-0.3,0.1-0.5l0,0
		l0,0c0.1-0.6,0.2-1.1,0.3-1.7c0-0.1,0.1-0.3,0.1-0.4l0,0c0.1-0.7,0.3-1.4,0.5-2.1c1.9-8.2,5.2-15.9,9.6-22.9
		c0.5-0.8,1.6-1.1,2.5-0.7L19.1,24.8z"/>
	<path class="st0" d="M25.2,84.9c-0.4,0-0.8-0.1-1.2-0.3l-3.6-1.7L1.7,72.7c-0.9-0.5-1.4-1.3-1.5-2.3c-0.1-0.8-0.1-1.5-0.1-2.3
		c0-0.1,0-0.2,0-0.4c0-0.5,0-1-0.1-1.5c0-0.7,0-1.3,0-2c0-0.7,0-1.5,0-2.2l0.1-1.2c0-0.4,0-0.7,0-1L0.2,59c0-0.5,0.1-1,0.1-1.4
		l0.1-0.8c0-0.5,0.1-1,0.2-1.4l0.1-0.7c0.1-0.5,0.1-1,0.2-1.5l1,0l-1-0.1c0-0.2,0.1-0.4,0.1-0.5c0.1-0.5,0.2-1.1,0.3-1.6
		c0-0.2,0.1-0.4,0.1-0.5c0.1-0.6,0.2-1.2,0.3-1.7c0-0.1,0.1-0.3,0.1-0.4c0.2-0.7,0.3-1.4,0.5-2.1c1.9-8.2,5.2-16,9.7-23.2
		c0.8-1.3,2.4-1.7,3.8-1l4,2l24.8,11.4c1.4,0.7,2.1,2.3,1.5,3.8L27.9,83c-0.3,0.8-0.9,1.3-1.7,1.6C25.9,84.8,25.5,84.9,25.2,84.9z
		 M14.2,23.5c-0.3,0-0.6,0.1-0.8,0.4C9.1,31,5.9,38.6,4,46.5c-0.2,0.7-0.3,1.4-0.5,2c0,0.1-0.1,0.3-0.1,0.4
		c-0.1,0.5-0.2,1.1-0.3,1.7c0,0.2-0.1,0.3-0.1,0.5c-0.1,0.5-0.2,1.1-0.3,1.6c0,0.2-0.1,0.3-0.1,0.5l0,0.1c-0.1,0.5-0.1,1-0.2,1.5
		l-0.1,0.7C2.4,56,2.4,56.5,2.3,57l-0.1,0.8c0,0.5-0.1,0.9-0.1,1.4l-0.1,0.8c0,0.3,0,0.6,0,0.9L2,62c0,0.7,0,1.4,0,2.2
		c0,0.6,0,1.3,0,1.9c0,0.5,0,1,0.1,1.5c0,0.2,0,0.2,0,0.3c0,0.8,0.1,1.6,0.1,2.3c0,0.3,0.2,0.6,0.5,0.7l18.5,10.2l3.6,1.6
		c0.2,0.1,0.5,0.1,0.8,0c0.3-0.1,0.4-0.3,0.6-0.5L44,38.3c0.2-0.5,0-1.1-0.5-1.3L18.6,25.6l-3.9-2C14.5,23.5,14.4,23.5,14.2,23.5z"
		/>
</g>
<g>
	<path class="st4" d="M146.9,26.3L146.9,26.3L146.9,26.3l3.8-1.8c1.4-0.7,3-0.2,3.7,1.1c6.8,11.6,10.6,24.9,10.6,39.1
		c0,2.1-0.1,4.2-0.3,6.3c-0.1,1.1-0.9,2.1-1.9,2.4l-24.3,8.3c-1.5,0.5-3.1-0.2-3.7-1.7l-15.9-38c-0.6-1.5,0.1-3.2,1.5-3.8
		L146.9,26.3z"/>
	<path class="st0" d="M137.6,82.9c-1.6,0-3-0.9-3.7-2.4l-15.9-38c-0.8-2,0.1-4.2,2-5.1l26.4-11.9l3.8-1.8c1.8-0.9,4-0.2,5,1.5
		c7,12,10.7,25.7,10.7,39.6c0,2.1-0.1,4.3-0.3,6.4c-0.1,1.5-1.1,2.8-2.6,3.3l-24.3,8.3C138.5,82.8,138,82.9,137.6,82.9z M152,25.2
		c-0.3,0-0.6,0.1-0.9,0.2l-3.8,1.9l-26.4,11.9c-1,0.4-1.4,1.6-1,2.6l15.9,38c0.4,1,1.5,1.4,2.5,1.1l24.3-8.3
		c0.7-0.2,1.2-0.9,1.3-1.6c0.2-2.1,0.3-4.2,0.3-6.3c0-13.5-3.6-26.8-10.5-38.6C153.2,25.5,152.6,25.2,152,25.2z"/>
</g>
<g>
	<path class="st3" d="M109,45.9l10-4.6l14.3,34.9l-11.1,4L109,45.9z"/>
	<path class="st0" d="M121.5,81.4l-13.8-36.1l11.8-5.4l15,36.8L121.5,81.4z M110.2,46.4l12.5,32.5l9.2-3.3l-13.5-33L110.2,46.4z"/>
</g>
<g>
	<path class="st4" d="M110.4,48.7C110.4,48.7,110.4,48.7,110.4,48.7C110.4,48.8,110.4,48.8,110.4,48.7l10.1,27.1
		c0.2,0.5,0,1-0.4,1.2l-6,3.3c-0.4,0.2-0.8,0.1-1.1-0.1l-25-22.9c0,0,0,0,0,0c-0.9-0.8-2-1.2-3.1-1.1l0,0l-3,0.3l0,0
		c-1.2,0.1-2.2,0.8-2.7,1.9l-3,6.1c0,0,0,0,0,0c-0.5,0.9-1.2,1.8-2.1,2.3l0,0c-1.4,0.9-3.3,1.2-4.8,0.7l0,0c-1.2-0.4-2-1.7-1.8-3
		c0,0,0,0,0,0l2-12.8c0,0,0,0,0,0c0.3-2,1.6-3.7,3.5-4.5c0,0,0,0,0,0l6.7-2.9l0,0l6.7-2.9c2.1-0.9,4.4-1,6.5-0.4l0,0l16.6,4.8
		L110.4,48.7z M111,47.5L111,47.5C111,47.5,111,47.5,111,47.5C111,47.5,111,47.5,111,47.5z"/>
	<path class="st0" d="M113.5,81.4c-0.5,0-1-0.2-1.3-0.5l-25-22.9c-0.6-0.6-1.5-0.9-2.4-0.8l-3,0.3c-0.8,0.1-1.6,0.6-1.9,1.3l-3,6.1
		c-0.6,1.1-1.4,2-2.4,2.7c-1.6,1.1-3.8,1.4-5.6,0.8c-1.7-0.5-2.7-2.3-2.5-4.1l2-12.8c0.4-2.4,1.9-4.3,4.1-5.3l13.4-5.8
		c2.3-1,4.8-1.1,7.2-0.5l17,5l0.6,1.7l0,0l0.8,1.8l-0.1,0l10,27c0.3,0.9,0,2-0.9,2.4l-6,3.3C114.2,81.3,113.8,81.4,113.5,81.4z
		 M85.1,55.1c1.3,0,2.5,0.5,3.5,1.3l25,22.9l6-3.3l-11-29.7l-16.1-4.7c-1.9-0.6-4-0.4-5.9,0.4L73.1,48c-1.6,0.7-2.6,2.1-2.9,3.8
		l-2,12.8c-0.1,0.8,0.4,1.7,1.1,1.9c1.3,0.4,2.8,0.2,3.9-0.6c0.7-0.5,1.3-1.2,1.7-2l3-6.1c0.7-1.4,2-2.3,3.5-2.4l3-0.3
		C84.8,55.1,84.9,55.1,85.1,55.1z M111.3,48.4l-0.9,0.3L111.3,48.4L111.3,48.4L111.3,48.4L111.3,48.4L111.3,48.4L111.3,48.4
		l-0.2-0.7L111.3,48.4z"/>
</g>
<path class="st4" d="M54.9,78c-0.4,0.8-0.9,1.5-1.3,2.2c-0.5,0.7-0.9,1.4-1.4,2.1c0.4-0.8,0.9-1.5,1.3-2.2
	C53.9,79.4,54.4,78.7,54.9,78z"/>
<defs>
	<filter id="Adobe_OpacityMaskFilter" filterUnits="userSpaceOnUse" x="50.4" y="76.8" width="6.2" height="6.7">
		<feColorMatrix  type="matrix" values="1 0 0 0 0  0 1 0 0 0  0 0 1 0 0  0 0 0 1 0"/>
	</filter>
</defs>
<mask maskUnits="userSpaceOnUse" x="50.4" y="76.8" width="6.2" height="6.7" id="path-10-inside-1_1246_2004_1_">
	<path class="st5" d="M54.9,78c-0.4,0.8-0.9,1.5-1.3,2.2c-0.5,0.7-0.9,1.4-1.4,2.1c0.4-0.8,0.9-1.5,1.3-2.2
		C53.9,79.4,54.4,78.7,54.9,78z"/>
</mask>
<path class="st6" d="M54.9,78l1.7,0.9l-3.3-2.1L54.9,78z M53.5,80.2l1.7,1.1l0,0l0,0L53.5,80.2z M52.1,82.4l-1.7-0.9l3.3,2.1
	L52.1,82.4z M53.4,80.2l-1.7-1.1l0,0l0,0L53.4,80.2z M53.1,77.1c-0.4,0.7-0.8,1.4-1.3,2.1l3.4,2.1c0.4-0.7,0.9-1.5,1.4-2.3
	L53.1,77.1z M51.9,79.2c-0.5,0.7-0.9,1.4-1.4,2l3.2,2.3c0.6-0.7,1.1-1.5,1.5-2.2L51.9,79.2z M53.8,83.3c0.4-0.7,0.8-1.4,1.3-2.1
	l-3.4-2.1c-0.4,0.7-0.9,1.5-1.4,2.3L53.8,83.3z M55.1,81.2c0.5-0.7,0.9-1.4,1.4-2l-3.2-2.3c-0.6,0.7-1.1,1.5-1.5,2.2L55.1,81.2z"/>
<path class="st4" d="M63.6,82.4c-0.5,1.1-1.1,2.1-1.6,3.1c-0.6,1-1.1,2.1-1.7,3.1c0.5-1.1,1.1-2.1,1.6-3.1
	C62.4,84.4,63,83.4,63.6,82.4z"/>
<defs>
	<filter id="Adobe_OpacityMaskFilter_1_" filterUnits="userSpaceOnUse" x="58.4" y="81.4" width="6.9" height="8.2">
		<feColorMatrix  type="matrix" values="1 0 0 0 0  0 1 0 0 0  0 0 1 0 0  0 0 0 1 0"/>
	</filter>
</defs>
<mask maskUnits="userSpaceOnUse" x="58.4" y="81.4" width="6.9" height="8.2" id="path-12-inside-2_1246_2004_1_">
	<path class="st7" d="M63.6,82.4c-0.5,1.1-1.1,2.1-1.6,3.1c-0.6,1-1.1,2.1-1.7,3.1c0.5-1.1,1.1-2.1,1.6-3.1
		C62.4,84.4,63,83.4,63.6,82.4z"/>
</mask>
<path class="st8" d="M63.6,82.4l1.8,0.8l-3.5-1.9L63.6,82.4z M61.9,85.5l1.7,1l0,0l0,0L61.9,85.5z M60.2,88.6l-1.8-0.8l3.5,1.9
	L60.2,88.6z M61.8,85.4l-1.7-1l0,0l0,0L61.8,85.4z M61.8,81.5c-0.5,1-1,2-1.6,3.1l3.5,1.9c0.5-1,1.1-2.1,1.7-3.2L61.8,81.5z
	 M60.2,84.6c-0.6,1-1.1,2-1.7,3l3.4,2.1c0.6-1,1.2-2.1,1.8-3.1L60.2,84.6z M62,89.4c0.5-1,1-2,1.6-3.1l-3.5-1.9
	c-0.5,1-1.1,2.1-1.7,3.2L62,89.4z M63.6,86.4c0.6-1,1.1-2,1.7-3l-3.4-2.1c-0.6,1-1.2,2.1-1.8,3.1L63.6,86.4z"/>
<path class="st4" d="M71,87.8c-0.4,0.9-0.9,1.7-1.3,2.6c-0.5,0.8-0.9,1.7-1.4,2.5c0.4-0.9,0.9-1.7,1.3-2.6
	C70.1,89.5,70.5,88.7,71,87.8z"/>
<defs>
	<filter id="Adobe_OpacityMaskFilter_2_" filterUnits="userSpaceOnUse" x="66.5" y="86.8" width="6.3" height="7.2">
		<feColorMatrix  type="matrix" values="1 0 0 0 0  0 1 0 0 0  0 0 1 0 0  0 0 0 1 0"/>
	</filter>
</defs>
<mask maskUnits="userSpaceOnUse" x="66.5" y="86.8" width="6.3" height="7.2" id="path-14-inside-3_1246_2004_1_">
	<path class="st9" d="M71,87.8c-0.4,0.9-0.9,1.7-1.3,2.6c-0.5,0.8-0.9,1.7-1.4,2.5c0.4-0.9,0.9-1.7,1.3-2.6
		C70.1,89.5,70.5,88.7,71,87.8z"/>
</mask>
<path class="st10" d="M71,87.8l1.8,0.8l-3.5-1.9L71,87.8z M69.7,90.4l1.7,0.9l0,0l0,0L69.7,90.4z M68.3,92.9l-1.8-0.8L70,94
	L68.3,92.9z M69.6,90.4l-1.7-0.9l0,0l0,0L69.6,90.4z M69.2,87c-0.4,0.8-0.8,1.6-1.3,2.5l3.5,1.9c0.4-0.8,0.9-1.8,1.4-2.7L69.2,87z
	 M68,89.5c-0.5,0.9-0.9,1.7-1.4,2.4L70,94c0.5-0.9,1-1.8,1.5-2.6L68,89.5z M70.1,93.8c0.4-0.8,0.8-1.6,1.3-2.5l-3.5-1.9
	c-0.4,0.8-0.9,1.8-1.4,2.7L70.1,93.8z M71.3,91.3c0.5-0.9,0.9-1.7,1.4-2.4l-3.4-2.1c-0.5,0.9-1,1.8-1.5,2.6L71.3,91.3z"/>
<g>
	<path class="st4" d="M54.2,77.7L54.2,77.7L54.2,77.7C54.2,77.7,54.2,77.6,54.2,77.7c0-0.2,0-0.3-0.1-0.4c0-0.3-0.1-0.6-0.2-1
		c-0.2-0.9-0.5-1.9-1-2.9c-0.5-1-1.1-1.7-1.7-2.1c-0.6-0.3-1.4-0.4-2.6,0.3l-0.2,0.1c-0.1,0-0.2,0.1-0.3,0.2c-0.3,0.2-0.6,0.6-1,1.1
		c-0.7,1.1-1.3,3-0.8,6.2L54.2,77.7z M54.2,77.7L54.2,77.7 M54.2,77.7L54.2,77.7 M54.2,77.7L54.2,77.7L54.2,77.7l0.2,1.4l1.3-0.7
		c1.8-1,2.9-1,3.6-0.8c0.7,0.2,1.3,0.8,1.7,1.7c0.4,0.9,0.6,1.9,0.7,2.7c0.1,0.4,0.1,0.7,0.1,1c0,0.1,0,0.2,0,0.3c0,0,0,0.1,0,0.1v0
		v0v0v0v0l0,1.3l1.2-0.3c2.1-0.5,3.6-0.5,4.5-0.2c0.9,0.3,1.4,0.8,1.7,1.3c0.3,0.6,0.5,1.2,0.5,1.8c0,0.3,0,0.5,0,0.7
		c0,0.1,0,0.1,0,0.2c0,0,0,0,0,0l0,0l0,0v0l0,0l-0.2,1.3l1.3-0.1c2.2-0.2,3.3,0.4,4,1c0.3,0.3,0.6,0.7,0.7,0.9
		c0.1,0.1,0.1,0.2,0.1,0.3c0,0,0,0.1,0,0.1c0,0,0,0,0,0c0,0,0,0,0,0 M54.2,77.7l-7.9,1.6c0.3,1.6,0.7,2.5,1.2,3
		c0.5,0.5,1,0.7,1.6,0.7c0.6,0.1,1.1-0.1,1.6-0.2c0.2-0.1,0.4-0.1,0.5-0.2c0.1,0,0.1,0,0.1-0.1c0,0,0,0,0,0l0,0l0,0l0,0l1.5-0.8
		l-0.1,1.7v0l0,0l0,0l0,0c0,0,0,0,0,0.1c0,0,0,0.1,0,0.2c0,0.2,0,0.5,0.1,0.8c0.1,0.7,0.2,1.5,0.6,2.2c0.4,0.7,0.9,1.2,1.6,1.5
		c0.8,0.3,2,0.3,3.8-0.3l1-0.4l0.2,1.1l0,0v0l0,0l0,0l0,0l0,0c0,0,0,0,0,0c0,0,0,0.1,0,0.2c0,0.2,0.1,0.4,0.2,0.6
		c0.2,0.5,0.5,1.2,1,1.8c0.5,0.6,1.1,1.1,1.8,1.3c0.7,0.2,1.7,0.3,3-0.2l1.1-0.4l0.2,1.2l0,0v0l0,0l0,0l0,0c0,0,0,0,0,0
		c0,0,0,0.1,0,0.2c0,0.2,0.1,0.4,0.2,0.7c0.2,0.6,0.5,1.3,0.9,2c0.4,0.6,1,1.1,1.6,1.3c0.6,0.2,1.5,0.2,2.7-0.4l4.7-3.3l-2-1.6
		l-0.2-0.2l-0.1-0.3 M75.6,91.6C75.6,91.6,75.6,91.6,75.6,91.6L75.6,91.6z"/>
	<path class="st0" d="M71.3,98.5c-0.4,0-0.8-0.1-1.1-0.2c-0.8-0.3-1.5-0.8-2.1-1.7c-0.5-0.8-0.9-1.6-1.1-2.2
		c-0.1-0.3-0.2-0.6-0.2-0.8l-0.1-0.3l0,0c-1.3,0.5-2.6,0.6-3.6,0.3c-0.9-0.3-1.6-0.8-2.3-1.6c-0.5-0.6-0.9-1.3-1.2-2.1
		c-0.1-0.3-0.2-0.6-0.3-0.7l-0.1-0.3c-1.8,0.6-3.3,0.8-4.5,0.3c-0.9-0.3-1.7-1-2.2-2c-0.5-0.9-0.6-1.9-0.7-2.5
		c0-0.4-0.1-0.7-0.1-0.9l0-0.3l-0.2,0.1c-0.1,0.1-0.4,0.1-0.6,0.2c-0.5,0.1-1.2,0.3-2,0.2c-0.9-0.1-1.6-0.4-2.2-1
		c-0.6-0.6-1-1.4-1.3-2.5l0,0l-0.2-1c0,0,0,0,0,0l-0.2-0.9l0,0c-0.3-3,0.4-4.9,1.1-6c0.3-0.5,0.7-1,1.2-1.4c0.1-0.1,0.3-0.2,0.4-0.3
		l0.2-0.1c1.3-0.7,2.5-0.8,3.6-0.3c0.8,0.4,1.6,1.3,2.2,2.5c0.5,1.1,0.9,2.3,1.1,3.1c0.1,0.4,0.2,0.8,0.2,1.1l0.1,0.4l0,0
		c1.7-0.9,3.2-1.2,4.4-0.8c0.9,0.3,1.7,1.1,2.2,2.2c0.5,1,0.7,2.2,0.8,3c0.1,0.4,0.1,0.8,0.1,1.1c0,0.1,0,0.2,0,0.3l0,0.1
		c2-0.5,3.7-0.6,5-0.2c1,0.3,1.8,0.9,2.3,1.8c0.4,0.8,0.6,1.6,0.6,2.2c0,0.3,0,0.6,0,0.8c0,0.1,0,0.2,0,0.2l0,0.1
		c2.5-0.3,4,0.5,4.8,1.3c0.5,0.4,0.7,0.9,0.9,1.2c0.1,0.2,0.2,0.3,0.2,0.4l0,0.1l0,0l0,0l0,0l0,0l3,2.5l-5.9,4.1
		C72.8,98.3,72,98.5,71.3,98.5z M68.2,90.6l0.5,2.6c0,0.2,0.1,0.4,0.2,0.6c0.1,0.5,0.4,1.1,0.8,1.7c0.3,0.5,0.7,0.8,1.1,0.9
		c0.5,0.2,1.1,0.1,1.9-0.3l3.6-2.5l-1.4-1.2l-0.2-0.5c0-0.1-0.1-0.1-0.1-0.2c-0.1-0.2-0.3-0.4-0.5-0.7c-0.7-0.7-1.8-0.9-3.2-0.8
		L68.2,90.6l0.5-2.7c0-0.1,0-0.3,0-0.5c0-0.4-0.1-0.9-0.4-1.4c-0.2-0.4-0.6-0.7-1.2-0.9c-0.6-0.2-1.9-0.3-4,0.2l-2.5,0.6l0-2.6
		l0-0.3c0-0.2,0-0.5-0.1-0.9c-0.1-0.7-0.3-1.6-0.6-2.4c-0.3-0.6-0.7-1-1.1-1.2c-0.4-0.1-1.2-0.2-2.9,0.7L54,80.4l-0.2,3.3
		c0,0.2,0,0.4,0,0.7c0.1,0.5,0.2,1.2,0.5,1.8c0.3,0.5,0.6,0.9,1.1,1c0.5,0.2,1.5,0.3,3.1-0.3l2.1-0.7l0.5,2.3c0,0.1,0.1,0.3,0.2,0.6
		c0.2,0.4,0.4,1,0.9,1.5c0.4,0.5,0.9,0.8,1.3,1c0.6,0.2,1.4,0.1,2.3-0.2L68.2,90.6z M75.6,91.6L75.6,91.6L75.6,91.6z M74.6,91.6h0.8
		H74.6z M47.5,80c0.2,0.8,0.5,1.3,0.8,1.5c0.3,0.3,0.5,0.4,0.9,0.4c0.4,0,0.9-0.1,1.2-0.2c0.2-0.1,0.3-0.1,0.4-0.2l0.1,0l2.6-1.4
		l-0.2-1.4L47.5,80z M48.9,72.6c0,0-0.1,0-0.1,0.1c-0.2,0.2-0.5,0.5-0.8,0.9c-0.5,0.8-1,2.2-0.8,4.5l5.9-1.2c0-0.1-0.1-0.3-0.1-0.4
		c-0.2-0.7-0.5-1.8-0.9-2.7c-0.4-0.8-0.9-1.4-1.3-1.6c-0.2-0.1-0.6-0.3-1.7,0.3L48.9,72.6C48.9,72.6,48.9,72.6,48.9,72.6z"/>
</g>
</svg>
