<?xml version="1.0" encoding="utf-8"?>
<!-- Generator: Adobe Illustrator 24.0.1, SVG Export Plug-In . SVG Version: 6.00 Build 0)  -->
<svg version="1.1" id="Layer_1" xmlns="http://www.w3.org/2000/svg" xmlns:xlink="http://www.w3.org/1999/xlink" x="0px" y="0px"
	 viewBox="0 0 134 134" style="enable-background:new 0 0 134 134;" xml:space="preserve">
<style type="text/css">
	.st0{fill:#121524;}
	.st1{fill:#E9A127;}
</style>
<g>
	<path class="st0" d="M83.1,32.1v-7.8c0-8.9-7.2-16.1-16.1-16.1s-16.1,7.2-16.1,16.1v7.8c-19.5,6.7-33.5,25.2-33.5,46.9
		c0,21.7,13.4,39.9,33.2,46.8c0.3,0.1,0.5,0.1,0.8,0.1c1,0,2-0.6,2.3-1.6c0.5-1.3-0.4-1.4-1.7-1.8c-21-5-31.5-24.5-31.5-43.5
		c0-16.5,6.5-33.5,30.3-44.7c1.6-0.6,3.2-1.2,4.9-1.6c3.6-0.9,7.3-1.2,11.2-1.2s7.7,0.3,11.2,1.2c1.7,0.4,3.3,1,4.9,1.6
		C104.1,44,113.6,60,113.6,79s-11.5,38-30.5,43.5c-1.3,0.5-2.5,0.3-2.1,1.6c0.5,1.3,1.9,1.9,3.1,1.5c19.4-7.1,32.4-25.9,32.4-46.6
		C116.6,58.2,102.6,38.8,83.1,32.1L83.1,32.1z M81.1,31.2c-3.6-0.8-10.2-1.9-14-1.9c-3.8,0-10.3,0.7-14,1.5v-6.4
		c0-8.5,6.5-14.5,14-14.5s13,4.8,14,14.8V31.2z"/>
	<path class="st1" d="M108.1,78.8c0-15.2-8.3-28.5-20.6-35.6c0,0-0.1-0.1-0.1-0.1C87.3,43,87.2,43,87.1,43c-1.3-0.7-2.6-1.4-3.9-1.9
		c-1.6-0.7-3.2-1.3-4.9-1.7c-3.4-0.9-6.9-1.5-10.5-1.6c-0.1-0.1-0.3-0.2-0.5-0.2c-0.2,0-0.3,0.1-0.5,0.2c-3.8,0-7.6,0.6-11.1,1.6
		c-1.7,0.5-3.3,1-4.9,1.7c-1.2,0.5-2.3,1-3.4,1.6c-0.1,0-0.2,0-0.2,0.1c-0.1,0-0.1,0.1-0.2,0.2C34.5,50,26,63.4,26,78.8
		c0,22.6,18.4,41.1,41.1,41.1S108.1,101.4,108.1,78.8L108.1,78.8z M105.6,78.8c0,6.5-1.6,12.7-4.5,18.1l-4.2-3c0,0,0,0-0.1,0
		c1-0.3,1.9-1.1,2.3-2.1c1.7-4.4,2.5-9.1,2.3-13.7l4.2,0.4C105.6,78.5,105.6,78.8,105.6,78.8L105.6,78.8z M105.6,77.2l-4.2-0.4
		c-0.4-5.6-2.1-11-5-15.8c0.1,0,0.1,0,0.2,0l3.7-1.7C103.4,64.5,105.3,70.7,105.6,77.2L105.6,77.2z M47.9,45.3l1.8,3.1
		c0.1,0.2,0.3,0.3,0.5,0.3c0.1,0,0.2,0,0.3-0.1c0.3-0.2,0.4-0.6,0.2-0.8L49,44.7c0.6-0.3,1.2-0.6,1.9-0.9c1.6-0.7,3.2-1.4,4.9-1.9
		c3.5-1,7.1-1.6,10.9-1.7v3.5c0,0.3,0.3,0.6,0.6,0.6c0.3,0,0.6-0.3,0.6-0.6v-3.4c3.6,0.1,7.1,0.7,10.4,1.6c1.7,0.5,3.3,1.2,4.9,1.9
		c0.7,0.3,1.5,0.7,2.2,1.1l-2.1,2.9c-0.2,0.3-0.1,0.7,0.1,0.8c0.1,0.1,0.2,0.1,0.3,0.1c0.2,0,0.4-0.1,0.5-0.2l2.1-3
		c5.4,3.1,9.9,7.5,13.3,12.8L96,59.8c0,0-0.2,0.1-0.3,0.2c-1.6-2.5-3.6-4.9-6-6.9c-2.1-1.8-4.3-3.3-6.7-4.6
		c-1.6-0.8-3.2-1.5-4.9-2.1C70.9,44,63,44,55.7,46.5c-1.6,0.6-3.3,1.3-4.8,2.1c-2.2,1.2-4.3,2.6-6.3,4.2c-2.5,2.1-4.6,4.6-6.3,7.3
		c0-0.1-0.1-0.3-0.3-0.3l-3.5-2C37.9,52.6,42.5,48.3,47.9,45.3L47.9,45.3z M34,58.9l3.5,2c0,0,0.2,0.1,0.3,0.1c0,0,0,0,0.1,0
		c-2.9,4.8-4.7,10.2-5,15.7h-4.3C28.8,70.2,30.8,64.2,34,58.9L34,58.9z M28.4,78.8c0-0.3,0-0.6,0-0.8h4.3c-0.1,4.5,0.6,9.2,2.3,13.6
		c0.5,1.2,1.4,1.9,2.5,2.2c-0.1,0-0.2,0-0.3,0.1l-4.5,2.6C30,91.2,28.4,85.2,28.4,78.8L28.4,78.8z M87.1,111.8c0,0,0-0.1,0-0.1
		l-2.3-5c-0.1-0.3-0.5-0.5-0.8-0.3c-0.3,0.1-0.5,0.5-0.3,0.8l2.3,5c0,0,0.1,0.1,0.2,0.2c-5.6,3.2-12,5-18.9,5.1
		c0.1-0.1,0.1-0.2,0.1-0.3v-7.7c0-0.3-0.3-0.6-0.6-0.6c-0.3,0-0.6,0.3-0.6,0.6v7.7c0,0,0,0.2,0.1,0.3c-6.9-0.1-13.3-2.1-18.8-5.3
		c0,0,0.1-0.1,0.1-0.1l2.7-4.8c0.2-0.3,0.1-0.7-0.2-0.8c-0.3-0.2-0.7-0.1-0.8,0.2l-2.7,4.8c0,0,0,0.1,0,0.1
		c-5.5-3.5-10.1-8.3-13.2-14l4.5-2.6c0.3-0.2,0.4-0.6,0.2-0.8c-0.1-0.1-0.2-0.2-0.3-0.2c0.7,0.1,1.4,0.1,2-0.2
		c1.9-0.7,2.8-2.9,2.1-4.8c-4.1-10.7-1.1-22.9,7.6-30.4c1.2-1,2.4-1.9,3.7-2.7c1.4-0.8,2.9-1.6,4.4-2.1c6.1-2.2,12.7-2.2,18.8,0
		c1.5,0.6,3,1.3,4.4,2.1c1.4,0.8,2.8,1.8,4.1,3c8.5,7.5,11.5,19.7,7.3,30.3c-0.7,1.9,0.2,4,2.1,4.8c0.5,0.2,0.9,0.2,1.3,0.2
		c0.1,0,0.2,0,0.3,0c-0.2,0.3-0.1,0.7,0.1,0.8l4.3,3.1C97.4,103.6,92.7,108.4,87.1,111.8L87.1,111.8z"/>
	<path class="st0" d="M87.3,67.5c-0.8-0.1-1.9-0.1-3.1,0c-2.4,0.2-10.7,4-11.9,4.9c-0.8,0.6-1.5,1.3-2.1,1.9c-0.9-0.6-2-1-3.2-1
		c-3,0-5.5,2.5-5.5,5.5c0,3,2.5,5.5,5.5,5.5c3,0,5.5-2.5,5.5-5.5c0.9-0.1,1.8-0.3,2.8-0.6c1.4-0.4,9.2-5,10.8-6.9
		c0.8-0.9,1.4-1.8,1.8-2.5c0.2-0.3,0.3-0.6,0.5-0.8c0.1-0.2,0.1-0.3,0.1-0.3s-0.1,0-0.3-0.1C88,67.7,87.7,67.6,87.3,67.5L87.3,67.5z
		"/>
	<path class="st1" d="M57.4,96c-2.4,0-4.3,1.9-4.3,4.3c0,2.4,1.9,4.3,4.3,4.3c2.4,0,4.3-1.9,4.3-4.3C61.7,97.9,59.7,96,57.4,96z"/>
	<path class="st1" d="M75.7,104.6c2.4,0,4.3-1.9,4.3-4.3S78.1,96,75.7,96s-4.3,1.9-4.3,4.3S73.4,104.6,75.7,104.6z"/>
	<path class="st0" d="M67,24.9c1.9,0,3.4-1.5,3.4-3.4c0-1.9-1.5-3.4-3.4-3.4s-3.4,1.5-3.4,3.4C63.7,23.4,65.2,24.9,67,24.9z"/>
</g>
</svg>
