<?xml version="1.0" encoding="utf-8"?>
<!-- Generator: Adobe Illustrator 24.0.1, SVG Export Plug-In . SVG Version: 6.00 Build 0)  -->
<svg version="1.1" id="Layer_1" xmlns="http://www.w3.org/2000/svg" xmlns:xlink="http://www.w3.org/1999/xlink" x="0px" y="0px"
	 viewBox="0 0 134 134" style="enable-background:new 0 0 134 134;" xml:space="preserve">
<style type="text/css">
	.st0{fill:#121524;}
	.st1{fill:#E9A127;}
</style>
<g>
	<path class="st0" d="M114.4,75.1c0-3.6-1.3-7.1-3.7-9.8C99,51.7,83.2,33.3,76,24.9c-2.4-2.8-5.8-4.5-9.5-4.6l-14-0.6h0.3v-7.6
		c0-2.8-2.2-5-5-5H30.7c-2.8,0-5,2.3-5,5.1l0.1,8.7l1.7-1.2c-3.9,0.6-6.8,3.4-6.8,6.7l-1.1,93.2c0,3.2,1.7,4.9,3.1,5.8
		c1.7,1,3.7,1.2,5,1.2c-0.3,0,0.6,0,0,0l74.8-0.1c8.5,0,11.8-1,11.8-12V75.1z M110.4,114.2c0,6.5-1.3,9-8.8,9l-72.5,0.4
		c-4,0.1-6.5-0.9-6.5-4.9l1-92c0-1.5,1-3.7,4.3-3.7l37.2,0.2c3.2,0,6.2,1.4,8.3,3.9c7.2,8.5,22.6,26.9,34.1,40.3
		c1.9,2.2,2.9,5,2.9,7.9V114.2z"/>
	<path class="st0" d="M48.9,27.4c-1.4,0-2.4,1.4-1.9,2.7c0,0,4,9.7,8.1,19.1c2.4,5.6,4.5,10,6,13.2c3,6.3,5.1,7.3,8.4,7.3h27.9
		c1.7,0,2.6-2,1.5-3.3l-3.4-4.1l-0.4-0.5C69.4,27.4,58.9,27.4,49.6,27.4L48.9,27.4z M93.1,63.5c1,1.3,0.1,3.2-1.6,3.2H71.1
		c-6.3,0-8.8-7.9-20.3-34.2c-0.6-1.3,0.4-2.8,1.8-2.7C65.5,31,75.5,40.2,93.1,63.5z"/>
	<path class="st1" d="M64.8,73.9c-10.8,0-19.5,9.1-19.5,20.2c0,11.1,8.8,20.2,19.5,20.2s19.5-9.1,19.5-20.2
		C84.3,82.9,75.6,73.9,64.8,73.9z M64.8,107.2c-4.2,0-7.6-3.5-7.6-7.9c0-4.4,7.6-18.4,7.6-18.4s7.6,14,7.6,18.4
		C72.4,103.7,69,107.2,64.8,107.2z"/>
</g>
</svg>
