<?xml version="1.0" encoding="utf-8"?>
<!-- Generator: Adobe Illustrator 24.0.1, SVG Export Plug-In . SVG Version: 6.00 Build 0)  -->
<svg version="1.1" id="Layer_1" xmlns="http://www.w3.org/2000/svg" xmlns:xlink="http://www.w3.org/1999/xlink" x="0px" y="0px"
	 viewBox="0 0 134 134" style="enable-background:new 0 0 134 134;" xml:space="preserve">
<style type="text/css">
	.st0{fill:none;stroke:#121524;stroke-width:2.3716;}
	.st1{fill:#E9A127;}
	.st2{fill:none;stroke:#121524;stroke-width:3.3598;}
</style>
<g>
	<path class="st0" d="M8.2,29.6h117.6c3.7,0,6.7,3,6.7,6.7v61.3c0,3.7-3,6.7-6.7,6.7H8.2c-3.7,0-6.7-3-6.7-6.7V36.4
		C1.5,32.7,4.5,29.6,8.2,29.6z"/>
	<path class="st1" d="M63.8,70.5c2.5,1.9,5.5,2.1,7.4-0.6c1.5-2.1,1.4-4.5,0.1-6.4c0-0.2-0.1-0.4-0.2-0.7c1.1-3.1,2.2-6.1,3.3-9.2
		c0.9-2.5-3.1-3.6-3.9-1.1c-1,2.9-2.1,5.8-3.1,8.8C62.7,61.5,59.1,66.9,63.8,70.5L63.8,70.5z M67.3,65.4c0.2,0.1,0.3,0.2,0.5,0.2
		c0,0,0.1,0.1,0.1,0.1c1.2,0.9-1,3.2-2.1,1.1C65.3,65.8,66.4,65.4,67.3,65.4z"/>
	<circle class="st2" cx="66.5" cy="67" r="23"/>
</g>
</svg>
