<?xml version="1.0" encoding="utf-8"?>
<!-- Generator: Adobe Illustrator 24.0.1, SVG Export Plug-In . SVG Version: 6.00 Build 0)  -->
<svg version="1.1" id="Layer_1" xmlns="http://www.w3.org/2000/svg" xmlns:xlink="http://www.w3.org/1999/xlink" x="0px" y="0px"
	 viewBox="0 0 134 134" style="enable-background:new 0 0 134 134;" xml:space="preserve">
<style type="text/css">
	.st0{fill:#121524;}
	.st1{fill:#E9A127;}
</style>
<g>
	<path class="st0" d="M114.2,77.1c-1.1-6.3-4.6-12.7-9.2-17.5c3.7-6.3,7.8-11.6,8.6-19.3c0.7-6.5-0.5-14.5-4.8-19.7
		c-4.2-5.1-9.9-6.7-16.2-7.2c-8.4-0.6-16.9-0.7-25.4-0.6c-12.9,0.2-29.6-2.6-40.1,6.7C22,24,19.5,31.4,19.1,38
		c-0.6,8.7,5.4,15.3,9.8,22.3c-4.2,5.5-6.9,12.2-8.3,19c-2,9.6-1.5,16.9,2.4,26c2.1,4.8,5.8,10.7,10.2,13.7c3,2.1,6.8,2,10.3,2.1
		c10.9,0.4,21.8,0.3,32.6,0.1c7-0.1,15.6,0.9,22.5-1c6.7-1.9,10.2-9.7,12.7-15.7C115,96.3,115.8,86,114.2,77.1L114.2,77.1z
		 M33.4,18.7c9.7-4.9,23.2-2.9,33.8-3.1c5.3-0.1,10.7,0,16.1,0.2c7.4,0.3,16-0.4,21.9,5c4.8,4.5,6.2,12.1,5.7,18.5
		c-0.5,7.4-4.4,12.4-8,18.3c-0.5-0.4-0.9-0.8-1.4-1.2c-2.9-2.2-5.7-3.9-8.6-5.4c4.1-6.4,10.3-15.7,1.9-21.7
		c-8.3-5.9-22.9-3.5-32.3-3.4c-4.1,0-8.1,0.4-12.2,0.9c-4,0.4-9.3,0.3-12.7,2.8C29.3,36,34.1,45,38.9,51.4c-0.9,0.5-1.7,1-2.5,1.5
		c-2.1,1.5-4,3.2-5.7,5c-4-6.1-9-12-8.7-19.7C22.3,30.2,26.2,22.4,33.4,18.7L33.4,18.7z M67.7,45.3c-8.9,0.1-18.1,1-26.2,4.8
		c-3.4-4.4-7.8-10.2-4.1-15.8c2.9-4.4,7.8-4.1,12.3-4.6c5.1-0.5,10-0.9,15.1-0.9c7.1,0,14.5-0.5,21.5,0.5c5,0.7,9.4,2.8,9.6,8.6
		c0.2,4.6-3.2,8.2-5.5,11.9C83.5,46.7,76.2,45.4,67.7,45.3L67.7,45.3z M111.9,88.9c-0.3,8.2-3,15.8-7.3,22.7
		c-5.2,8.3-15.3,6.7-23.9,6.9c-10.3,0.2-20.5,0.3-30.8,0.1c-6.8-0.1-12.8,0.4-18.1-4.6c-4.8-4.7-7.2-11.2-9.1-17.5
		c-3.3-10.9,1.9-26.9,9-35.4c8.8-10.7,22.9-12.7,35.9-12.8c12.7,0.1,25.2,3.4,34.7,12.5C109.9,68.1,112.3,78.6,111.9,88.9
		L111.9,88.9z"/>
	<path class="st1" d="M73.1,64.7l-8.4-1.4l-5.1,3.3l-4.2,4.7l-0.5,7.5l2.8,6.5l7.9,3.3l12.6-3.7l0.9-13L73.1,64.7z"/>
	<path class="st1" d="M70.2,62C62.8,61,56,65.4,54,73c-1.8,7.4,0.9,14.8,8.5,16.4c7.2,1.5,17.1-0.9,18.6-9.5
		C82.6,72.2,77.6,63.6,70.2,62z M65.5,86.7c-15-0.6-9.6-23.8,4-21.9c5.3,1.1,8.9,6.4,9.1,12C78.9,84.7,71.7,87,65.5,86.7z"/>
</g>
</svg>
