<?xml version="1.0" encoding="utf-8"?>
<!-- Generator: Adobe Illustrator 24.0.1, SVG Export Plug-In . SVG Version: 6.00 Build 0)  -->
<svg version="1.1" id="Layer_1" xmlns="http://www.w3.org/2000/svg" xmlns:xlink="http://www.w3.org/1999/xlink" x="0px" y="0px"
	 viewBox="0 0 134 134" style="enable-background:new 0 0 134 134;" xml:space="preserve">
<style type="text/css">
	.st0{fill:none;stroke:#121524;stroke-width:2.9447;}
	.st1{fill:#FFFFFF;}
	.st2{fill:#E9A127;}
</style>
<g>
	<path class="st0" d="M6.6,110.3c-0.2-0.2-0.4-0.4-0.5-0.6l2.2-17.3l0,0l0,0c1.3-13.9,13-17.2,17.4-18.4c0.4-0.1,0.7-0.2,1-0.3
		c0.3-0.1,0.6-0.2,1-0.3c1.7-0.5,4.6-1.4,7.3-2.5c1.7-0.7,3.3-1.4,4.7-2.2c1.3-0.8,2.6-1.8,3.2-3.1c0.4-0.8,0.5-1.8,0.6-2.8
		c0.1-1,0-2.2-0.1-3.4l0-0.5L43,58.5c-4.1-4.9-6.8-11.2-8.3-15.3l-0.7-1.8l-1.6,1.1c-0.4,0.3-0.6,0.3-0.7,0.3c-0.1,0-0.1,0-0.1,0
		c0,0,0,0,0,0c0,0-0.1-0.1-0.1-0.1c0,0,0,0,0,0l0-0.1l-0.1-0.1c-3.3-4.9-3.8-8-3.5-9.9c0.2-1.5,0.9-2.3,1.3-2.8c0,0,0,0,0,0
		c0,0,0,0,0,0l0.9,1.2l1.2-0.9l0.1-0.1l0.6-0.5l0-0.8C31.4,16,36.5,9.4,42,5.9C47.5,2.4,53.5,2,54.8,2h0h0h0h0h0h0h0h0h0h0h0h0h0h0
		h0h0h0h0h0h0h0h0h0h0h0h0h0h0h0h0h0h0h0h0h0h0h0h0h0h0h0h0h0h0h0h0h0h0h0h0h0h0h0h0h0h0h0h0h0h0h0h0h0h0h0h0h0h0h0h0h0h0h0h0h0h0h0
		h0h0h0h0h0h0h0h0h0h0h0h0h0h0h0h0h0h0h0h0h0h0h0h0h0h0h0h0h0h0h0h0h0h0h0h0h0h0h0h0h0h0h0h0h0h0h0h0h0h0h0h0h0h0h0h0h0h0h0h0h0h0h0
		h0h0h0h0h0h0h0h0h0h0h0h0h0h0h0h0h0h0h0h0h0h0h0h0h0h0h0h0h0h0h0h0h0h0h0h0h0h0h0h0h0h0h0h0h0h0h0h0h0h0h0h0h0h0h0h0h0h0h0h0h0h0h0
		h0h0h0h0h0h0h0h0h0h0h0h0h0h0h0h0h0h0h0h0h0h0h0h0h0h0h0h0h0h0h0h0h0h0h0h0h0h0h0h0h0h0h0h0h0h0h0h0h0h0h0h0h0h0h0h0h0h0h0h0h0h0h0
		h0h0h0h0h0h0h0h0h0h0h0h0h0h0h0h0h0h0h0h0h0h0h0h0h0h0h0h0h0h0h0h0h0h0h0h0h0h0h0h0h0h0h0h0h0h0h0h0h0h0h0h0h0h0h0h0h0h0h0h0h0h0h0
		h0h0h0h0h0h0h0h0h0h0h0h0h0h0h0h0h0h0h0h0h0h0h0h0h0h0h0h0h0h0h0h0h0h0h0h0h0h0h0h0h0h0h0h0h0h0h0h0h0h0h0h0h0h0h0h0h0h0h0h0h0h0h0
		h0h0h0h0h0h0h0h0h0h0h0h0h0h0h0h0h0h0h0h0h0h0h0h0h0h0h0h0h0h0h0h0h0h0h0h0h0h0h0h0h0h0h0h0h0h0h0h0h0h0h0h0h0h0h0h0h0h0h0h0h0h0h0
		h0h0h0h0h0h0h0h0h0h0h0h0h0h0h0h0h0c1.2,0.1,7.2,0.8,12.6,4.7c5.4,3.8,10.4,10.8,9.7,23.7l2.8,0.6l0.4-1.1c0.4,0.4,1,1.3,1.2,2.7
		c0.3,1.9-0.2,5.1-3.5,9.9l-0.1,0.1l0,0.1c0,0,0,0,0,0c0,0-0.1,0.1-0.1,0.1c0,0,0,0-0.1,0c-0.1,0-0.3-0.1-0.7-0.3L79,41.5l-0.7,1.8
		c-1.5,4.1-4.2,10.3-8.3,15.2l-0.3,0.4l0,0.5c-0.1,1.2-0.1,2.4-0.1,3.4c0.1,1,0.2,2,0.6,2.9c0.6,1.3,1.9,2.3,3.2,3.1
		c1.4,0.8,3,1.6,4.7,2.2c2.7,1.1,5.5,1.9,7.3,2.5c0.4,0.1,0.7,0.2,1,0.3l0,0c0.3,0.1,0.6,0.2,1,0.3c4.4,1.2,16.1,4.5,17.4,18.4l0,0
		l0,0l2.2,17.3c-0.1,0.2-0.3,0.3-0.5,0.6c-0.6,0.6-1.4,1.4-2.5,2.2c-2.2,1.6-5.3,2.9-9.1,2.3l-0.4-0.1l-0.4,0.2h0h0h0l0,0l0,0
		c0,0-0.1,0-0.1,0.1c-0.1,0.1-0.3,0.1-0.6,0.2c-0.5,0.2-1.3,0.5-2.2,0.9c-1.9,0.7-4.7,1.7-8.1,2.7c-6.8,2-15.8,3.9-25,3.8h0h0h0h0h0
		h0h0h0h0h0h0h0h0h0h0h0h0h0h0h0h0h0h0h0h0h0h0h0h0h0h0h0h0h0h0h0h0h0h0h0h0h0h0h0h0h0h0h0h0h0h0h0h0h0h0h0h0h0h0h0h0h0h0h0h0h0h0h0
		h0h0h0h0h0h0h0h0h0h0h0h0h0h0h0h0h0h0h0h0h0h0h0h0h0h0h0h0h0h0h0h0h0h0h0h0h0h0h0h0h0h0h0h0h0h0h0h0h0h0h0h0h0h0h0h0h0h0h0h0h0h0h0
		h0h0h0h0h0h0h0h0h0h0h0h0h0h0h0h0h0h0h0h0h0h0h0h0h0h0h0h0h0h0h0h0h0h0h0h0h0h0h0h0h0h0h0h0h0h0h0h0h0h0h0h0h0h0h0h0h0h0h0h0h0h0h0
		h0h0h0h0h0h0h0h0h0h0h0h0h0h0h0h0h0h0h0h0h0h0h0h0h0h0h0h0h0h0h0h0h0h0h0h0h0h0h0h0h0h0h0h0h0h0h0h0h0h0h0h0h0h0h0h0h0h0h0h0h0h0h0
		h0h0h0h0h0h0h0h0h0h0h0h0h0h0h0h0h0h0h0h0h0h0h0h0h0h0h0h0h0h0h0h0h0h0h0h0h0h0h0h0h0h0h0h0h0h0h0h0h0h0h0h0h0h0h0h0h0h0h0h0h0h0h0
		h0h0h0h0h0h0h0h0h0h0h0h0h0h0h0h0h0h0h0h0h0h0h0h0h0h0h0h0h0h0h0h0h0h0h0h0h0h0h0h0h0h0h0h0h0h0h0h0h0h0h0h0h0h0h0h0h0h0h0h0h0h0h0
		h0h0h0h0h0h0h0h0h0h0h0h0h0h0h0h0h0h0h0h0h0h0h0h0h0h0h0h0h0h0h0h0h0h0h0h0h0h0h0h0h0h0h0h0h0h0h0h0h0h0h0h0h0h0h0h0h0h0h0h0h0h0h0
		h0h0h0h0h0h0h0h0h0h0h0h0h0h0h0h0h0h0h0h0h0h0h0h0h0h0h0h0h0h0h0h0h0h0h0h0h0h0h0h0h0h0h0h0h0h0h0h0h0h0h0h0h0h0h0h0h0h0h0h0h0h0h0
		h0l0,0h0l0,1.5v-1.5h0l0,0h0h0h0h0h0h0h0h0h0h0h0h0h0h0h0h0h0h0h0h0h0h0h0h0h0h0h0h0h0h0h0h0h0h0h0h0h0h0h0h0h0h0h0h0h0h0h0h0h0h0
		h0h0h0h0h0h0h0h0h0h0h0h0h0h0h0h0h0h0h0h0h0h0h0h0h0h0h0h0h0h0h0h0h0h0h0h0h0h0h0h0h0h0h0h0h0h0h0h0h0h0h0h0h0h0h0h0h0h0h0h0h0h0h0
		h0h0h0h0h0h0h0h0h0h0h0h0h0h0h0h0h0h0h0h0h0h0h0h0h0h0h0h0h0h0h0h0h0h0h0h0h0h0h0h0h0h0h0h0h0h0h0h0h0h0h0h0h0h0h0h0h0h0h0h0h0h0h0
		h0h0h0h0h0h0h0h0h0h0h0h0h0h0h0h0h0h0h0h0h0h0h0h0h0h0h0h0h0h0h0h0h0h0h0h0h0h0h0h0h0h0h0h0h0h0h0h0h0h0h0h0h0h0h0h0h0h0h0h0h0h0h0
		h0h0h0h0h0h0h0h0h0h0h0h0h0h0h0h0h0h0h0h0h0h0h0h0h0h0h0h0h0h0h0h0h0h0h0h0h0h0h0h0h0h0h0h0h0h0h0h0h0h0h0h0h0h0h0h0h0h0h0h0h0h0h0
		h0h0h0h0h0h0h0h0h0h0h0h0h0h0h0h0h0h0h0h0h0h0h0h0h0h0h0h0h0h0h0h0h0h0h0h0h0h0h0h0h0h0h0h0h0h0h0h0h0h0h0h0h0h0h0h0h0h0h0h0h0h0h0
		h0h0h0h0h0h0h0h0h0h0h0h0h0h0h0h0h0h0h0h0h0h0h0h0h0h0h0h0h0h0h0h0h0h0h0h0h0h0h0h0h0h0h0h0h0h0h0h0h0h0h0h0h0h0h0h0h0h0h0h0h0h0h0
		h0h0h0h0h0h0h0h0h0h0h0h0h0h0h0h0h0h0h0h0h0h0h0h0h0h0h0h0h0h0h0h0h0h0h0h0h0h0h0h0h0h0h0h0h0h0h0h0h0h0h0h0h0h0h0h0h0h0h0h0h0h0h0
		h0h0h0h0h0h0h0h0h0h0h0h0h0h0h0h0h0h0h0c-9.2,0.1-18.3-1.8-25-3.8c-3.4-1-6.2-2-8.1-2.7c-1-0.4-1.7-0.7-2.2-0.9
		c-0.2-0.1-0.4-0.2-0.5-0.2l-0.3-0.4l-0.7,0.1c-3.8,0.6-6.9-0.8-9.1-2.3C8,111.7,7.1,110.9,6.6,110.3z M29,29.7
		C29,29.7,29,29.7,29,29.7C29,29.7,29,29.7,29,29.7z M83.8,29.9C83.8,29.9,83.8,29.9,83.8,29.9L83.8,29.9L83.8,29.9z M84,29.7
		C84,29.7,84,29.7,84,29.7C84,29.7,84,29.7,84,29.7z"/>
	<path class="st1" d="M104.9,111.3c1.2-1.2,2.2-2.4,3-3.7l15.3,13c1.5,1.3,2.4,3.1,2.4,5c0,1.7-0.7,3.4-2,4.7
		c-2.8,2.8-7.4,2.6-10-0.5l-12.6-15.5C102.3,113.5,103.6,112.5,104.9,111.3L104.9,111.3z"/>
	<path class="st1" d="M99.8,86.4c1.4,1.4,1.4,3.5,0,4.9l-14,14l-8-8c-0.7-0.7-1.1-1.5-1.1-2.4c0-0.9,0.3-1.7,1.1-2.4
		c1.4-1.4,3.5-1.4,4.9,0l3.1,3l9.2-9.1C96.3,85,98.4,85,99.8,86.4z"/>
	<path class="st1" d="M104.9,79.3c7.8,7.7,8.8,19.4,3,28.3c-0.8,1.3-1.9,2.6-3,3.7c-1.2,1.2-2.5,2.2-3.9,3c-8.8,5.6-20.7,4.5-28.4-3
		c-8.9-8.8-8.9-23.2,0-32S96,70.5,104.9,79.3z M99.8,91.2c1.3-1.4,1.3-3.5,0-4.9c-1.4-1.4-3.5-1.4-4.9,0l-9.2,9.1l-3.1-3
		c-1.4-1.4-3.5-1.4-4.9,0c-0.7,0.7-1.1,1.5-1.1,2.4c0,0.9,0.3,1.7,1.1,2.4l8.1,8L99.8,91.2z"/>
	<path class="st2" d="M85.8,106.7c-0.3,0-0.7-0.1-1.1-0.5l-8.1-8c-0.9-0.9-1.4-2.2-1.4-3.5s0.5-2.6,1.4-3.5c0.9-0.9,2.2-1.4,3.5-1.4
		c1.3,0,2.6,0.5,3.5,1.4l2,2l8.1-8c0.9-0.9,2.2-1.4,3.5-1.4c1.3,0,2.6,0.5,3.5,1.4c1.9,1.9,1.9,5,0,6.9l-14,14
		C86.6,106.6,86.3,106.7,85.8,106.7z M80.3,92.8c-0.6,0-1.1,0.2-1.4,0.6c-0.3,0.3-0.6,0.9-0.6,1.4c0,0.6,0.2,1,0.6,1.4l7.1,7
		l12.8-12.9c0.8-0.8,0.8-2.1,0-2.8c-0.3-0.3-0.9-0.6-1.4-0.6c-0.6,0-1.1,0.2-1.4,0.6l-9.2,9.1c-0.6,0.6-1.5,0.6-2.1,0l-3.1-3
		C81.2,93,80.7,92.8,80.3,92.8z"/>
	<path class="st2" d="M118.9,133.7h-0.5c-2.4-0.1-4.5-1.2-5.9-3l-12.7-15.4c-0.5-0.6-0.5-1.5,0.2-2.1c0.7-0.6,1.5-0.5,2.1,0.2
		l12.7,15.5c0.9,1.2,2.4,1.9,3.8,1.9c1.5,0.1,2.9-0.5,4-1.5c0.9-0.9,1.5-2.3,1.5-3.7c0-1.5-0.7-2.9-1.9-4l-15.4-12.9
		c-0.6-0.5-0.7-1.4-0.1-2.1c0.6-0.7,1.4-0.7,2.1-0.1l15.3,13c1.8,1.5,2.8,3.7,2.8,6.2c0,2.2-0.8,4.2-2.4,5.7
		C123.2,132.9,121,133.7,118.9,133.7L118.9,133.7z"/>
	<path class="st2" d="M88.7,119.4c-6.5,0-12.6-2.6-17.2-7.1c-9.5-9.4-9.5-24.7,0-34c4.6-4.5,10.7-7.1,17.2-7.1
		c6.5,0,12.6,2.6,17.2,7.1c4,4,6.5,9.1,7.1,14.5c0.6,5.5-0.8,10.9-3.8,15.5c-0.9,1.4-2,2.8-3.2,4c-1.3,1.3-2.6,2.3-4.1,3.3
		C97.9,118.1,93.4,119.4,88.7,119.4L88.7,119.4z M88.7,74.2c-5.8,0-11,2.2-15.2,6.2c-8.3,8.3-8.3,21.6,0,29.9c4,4,9.4,6.2,15.1,6.2
		c4.1,0,8.1-1.2,11.5-3.4c1.3-0.8,2.5-1.7,3.6-2.9c1.1-1,2-2.2,2.8-3.5c5.4-8.3,4.2-19.4-2.8-26.4C99.9,76.3,94.5,74.2,88.7,74.2z"
		/>
</g>
</svg>
