<?xml version="1.0" encoding="utf-8"?>
<!-- Generator: Adobe Illustrator 24.0.1, SVG Export Plug-In . SVG Version: 6.00 Build 0)  -->
<svg version="1.1" id="Layer_1" xmlns="http://www.w3.org/2000/svg" xmlns:xlink="http://www.w3.org/1999/xlink" x="0px" y="0px"
	 viewBox="0 0 134 134" style="enable-background:new 0 0 134 134;" xml:space="preserve">
<style type="text/css">
	.st0{fill:#121524;}
	.st1{fill:#E9A127;}
	.st2{fill:#F7F7F5;}
</style>
<g>
	<path class="st0" d="M67,8C34.4,8,8,34.4,8,67s26.4,59,59,59s59-26.4,59-59S99.6,8,67,8z M67,123.5c-29.9,0-56.5-26.6-56.5-56.5
		S37.1,10.5,67,10.5s56,26.6,56,56.5S96.9,123.5,67,123.5z"/>
	<circle class="st1" cx="66.5" cy="67.5" r="33.5"/>
	<circle class="st1" cx="66.5" cy="67.5" r="33.5"/>
	<path class="st0" d="M92,43c-0.1-0.1-0.3-0.3-0.4-0.4C84.9,36.1,77,32.5,67,32.5c-20.2,0-35,16-35,34.5c0,10,3.2,17.7,9.7,24.1
		l0.2,0.2C56,105.5,76.4,106.4,91,92c0.1-0.1,0.3-0.3,0.4-0.4C103,79,106,57.4,92,43z M91.2,87.8L75.4,72.1c0.4-0.8,0.8-1.6,1-2.6
		h22.4C98.2,76.4,95.5,82.7,91.2,87.8L91.2,87.8z M35.2,69.5h22.4c0.2,1,0.6,1.8,1,2.6L42.8,87.8C38.5,82.7,35.7,76.4,35.2,69.5
		L35.2,69.5z M42.8,46.1l15.7,15.7c-0.4,0.8-0.8,1.6-1,2.6H35.2C35.8,57.5,38.5,51.3,42.8,46.1L42.8,46.1z M67,71.9
		c-2.8,0-4.9-2.2-4.9-4.9s2.2-4.9,4.9-4.9c2.8,0,4.9,2.2,4.9,4.9S69.8,71.9,67,71.9z M71.9,58.5c-0.8-0.4-1.6-0.8-2.6-1V35.1
		c6.9,0.6,13.4,3.3,18.3,7.7L71.9,58.5L71.9,58.5z M64.6,57.5c-1,0.2-1.8,0.6-2.6,1L46.3,42.8c4.9-4.3,11.4-7.1,18.3-7.7V57.5
		L64.6,57.5z M62.1,75.4c0.8,0.4,1.6,0.8,2.6,1v22.4c-6.9-0.6-13.4-3.3-18.3-7.7L62.1,75.4L62.1,75.4z M69.6,76.4
		c1-0.2,1.8-0.6,2.6-1l15.7,15.7c-4.9,4.3-11.4,7.1-18.3,7.7V76.4L69.6,76.4z M76.4,64.6c-0.2-1-0.6-1.8-1-2.6l15.7-15.7
		c4.3,4.9,7.1,11.4,7.7,18.3H76.4L76.4,64.6z"/>
	<circle class="st1" cx="67" cy="67" r="8"/>
	<circle class="st2" cx="67" cy="67" r="8"/>
</g>
</svg>
