<?xml version="1.0" encoding="utf-8"?>
<!-- Generator: Adobe Illustrator 24.0.1, SVG Export Plug-In . SVG Version: 6.00 Build 0)  -->
<svg version="1.1" id="Layer_1" xmlns="http://www.w3.org/2000/svg" xmlns:xlink="http://www.w3.org/1999/xlink" x="0px" y="0px"
	 viewBox="0 0 134 134" style="enable-background:new 0 0 134 134;" xml:space="preserve">
<style type="text/css">
	.st0{fill:#FFFFFF;}
	.st1{fill:#E9A127;}
	.st2{fill:#121524;}
</style>
<path class="st0" d="M78.2,76.4c-6.2,0-11.3,5.1-11.3,11.2c0,6.1,5.1,11.2,11.3,11.2s11.3-5.1,11.3-11.2
	C89.5,81.4,84.4,76.4,78.2,76.4z M89.5,68.2c6.8,3.9,11.3,11,11.3,19.4c0,12.4-10.1,22.3-22.6,22.3c-12.5,0-22.6-10-22.6-22.3
	c0-8.3,4.5-15.5,11.3-19.4V35.4c0-3.1,1.2-5.8,3.3-7.9s4.8-3.3,8-3.3c6.2,0,11.3,5.1,11.3,11.2L89.5,68.2L89.5,68.2z"/>
<path class="st1" d="M40.6,24.3c9.3,0,17,7.4,17,16.8s-7.5,16.8-17,16.8s-17-7.4-17-16.8S31.3,24.3,40.6,24.3z"/>
<path class="st1" d="M78.2,100.5C71,100.5,65,94.7,65,87.4c0-7.3,5.9-13.1,13.2-13.1c7.4,0,13.2,5.8,13.2,13.1
	C91.4,94.7,85.4,100.5,78.2,100.5z M78.2,78.2c-5.1,0-9.5,4.2-9.5,9.4c0,5.2,4.2,9.4,9.5,9.4c5.3,0,9.5-4.2,9.5-9.4
	C87.7,82.3,83.3,78.2,78.2,78.2z"/>
<path class="st2" d="M78.2,111.7c-13.5,0-24.5-10.9-24.5-24.3c0-8.2,4.4-15.9,11.3-20.4V35.4c0-3.4,1.4-6.7,3.9-9.2
	c2.6-2.5,5.9-3.9,9.3-3.9c7.2,0,13.2,5.8,13.2,13.1v31.7c6.9,4.5,11.3,12.2,11.3,20.4C102.7,100.8,91.7,111.7,78.2,111.7z M78.2,25
	c-2.6,0-5.8,1-7.6,2.7c-1.8,1.8-2.7,5.2-2.7,7.6V67c0,0.6-0.3,1.3-0.9,1.6c-6.3,3.7-10.4,11.4-10.4,18.7c0,11.3,10.2,21.6,21.6,21.6
	S100,98.7,100,87.4c0-7.3-3.9-15.1-10.4-18.7c-0.6-0.3-0.9-0.9-0.9-1.6V35.3C88.7,30.2,84.8,25,78.2,25z"/>
<path class="st1" d="M78.2,78.2c-1.1,0-2-0.9-2-1.9V39c0-1,0.9-1.9,2-1.9c1,0,2,0.9,2,1.9v37.2C80.2,77.3,79.3,78.2,78.2,78.2z"/>
<path class="st1" d="M110.2,37.2H99c-1.1,0-2-0.9-2-1.9c0-1,0.9-1.9,2-1.9h11.3c1.1,0,2,0.9,2,1.9C112,36.3,111.1,37.2,110.2,37.2z"
	/>
<path class="st1" d="M110.2,44.7H99c-1.1,0-2-0.9-2-1.9c0-1,0.9-1.9,2-1.9h11.3c1.1,0,2,0.9,2,1.9C112,43.8,111.1,44.7,110.2,44.7z"
	/>
<path class="st1" d="M110.2,52.1H99c-1.1,0-2-0.9-2-1.9c0-1,0.9-1.9,2-1.9h11.3c1.1,0,2,0.9,2,1.9C112.2,51.2,111.1,52.1,110.2,52.1
	z"/>
<path class="st1" d="M110.2,59.6H99c-1.1,0-2-0.9-2-1.9c0-1,0.9-1.9,2-1.9h11.3c1.1,0,2,0.9,2,1.9C112.2,58.7,111.1,59.6,110.2,59.6
	z"/>
<path class="st1" d="M40.6,59.6c-10.4,0-18.8-8.3-18.8-18.6s8.4-18.6,18.8-18.6c10.4,0,18.8,8.3,18.8,18.6S51,59.6,40.6,59.6z
	 M40.6,26c-8.3,0-15,6.7-15,14.9s6.8,14.9,15,14.9s15-6.7,15-14.9S48.9,26,40.6,26z"/>
<path class="st0" d="M50.1,42.9H31.3c-1.1,0-2-0.9-2-1.9c0-1,0.9-1.9,2-1.9h18.8c1.1,0,2,0.9,2,1.9C51.9,42,51,42.9,50.1,42.9z"/>
<path class="st0" d="M40.6,52.1c-1.1,0-2-0.9-2-1.9V31.7c0-1,0.9-1.9,2-1.9c1,0,2,0.9,2,1.9v18.6C42.6,51.2,41.6,52.1,40.6,52.1z"/>
</svg>
