<?xml version="1.0" encoding="utf-8"?>
<!-- Generator: Adobe Illustrator 24.0.1, SVG Export Plug-In . SVG Version: 6.00 Build 0)  -->
<svg version="1.1" id="Layer_1" xmlns="http://www.w3.org/2000/svg" xmlns:xlink="http://www.w3.org/1999/xlink" x="0px" y="0px"
	 viewBox="0 0 166 120" style="enable-background:new 0 0 166 120;" xml:space="preserve">
<style type="text/css">
	.st0{clip-path:url(#SVGID_2_);}
	.st1{clip-path:url(#SVGID_4_);}
	.st2{fill:#E9A127;stroke:#121524;stroke-width:2;}
	.st3{fill:#121524;}
	.st4{fill:#E9A127;}
</style>
<g>
	<defs>
		<rect id="SVGID_1_" x="23" width="120" height="120"/>
	</defs>
	<clipPath id="SVGID_2_">
		<use xlink:href="#SVGID_1_"  style="overflow:visible;"/>
	</clipPath>
	<g class="st0">
		<g>
			<defs>
				<rect id="SVGID_3_" x="30" width="106" height="120"/>
			</defs>
			<clipPath id="SVGID_4_">
				<use xlink:href="#SVGID_3_"  style="overflow:visible;"/>
			</clipPath>
			<g class="st1">
				<path class="st2" d="M78.3,62.5l1,0.1L78.3,62.5c-0.4,4.2-4,7.5-8.4,7.5c-4.4,0-7.9-3.3-8.4-7.5c-0.1-1-0.9-1.9-2-1.9h-9.8
					c-1.1,0-2,0.9-2,2v40.2c0,1.1,0.9,2,2,2h40.5c1.1,0,2-0.9,2-2v-9.7c0,0,0,0,0,0c0,0,0,0,0,0c0,0,0,0,0,0c0,0,0.1,0,0.1,0
					c5.2-0.5,9.3-5,9.3-10.3c0-5.4-4.1-9.8-9.3-10.3c0,0-0.1,0-0.1,0c0,0,0,0,0,0c0,0,0,0,0,0v-9.7c0-1.1-0.9-2-2-2h-9.8
					C79.2,60.6,78.4,61.5,78.3,62.5z"/>
				<path class="st3" d="M112.4,52.3c5.2,0,9.4,4.2,9.4,9.4h11.8v42.2H91.1V92.1c5.2,0,9.4-4.2,9.4-9.4c0-5.2-4.2-9.4-9.4-9.4V61.6
					h11.8C102.9,56.5,107.2,52.3,112.4,52.3z"/>
				<path class="st3" d="M133.6,106.2H91.1c-1.3,0-2.4-1.1-2.4-2.4V92.1c0-1.3,1.1-2.4,2.4-2.4c3.9,0,7-3.1,7-7c0-3.9-3.2-7-7-7
					c-1.3,0-2.4-1.1-2.4-2.4V61.6c0-1.3,1.1-2.4,2.4-2.4h9.6c1.1-5.3,5.9-9.4,11.6-9.4c5.7,0,10.5,4,11.6,9.4h9.6
					c1.3,0,2.4,1.1,2.4,2.4v42.2C136,105.2,134.9,106.2,133.6,106.2z M93.5,101.5h37.7V64h-9.4c-1.3,0-2.4-1.1-2.4-2.4
					c0-3.9-3.2-7-7-7c-3.9,0-7,3.1-7,7c0,1.3-1.1,2.4-2.4,2.4h-9.4v7.2c5.4,1.1,9.4,5.8,9.4,11.5s-4.1,10.4-9.4,11.5V101.5
					L93.5,101.5z"/>
				<path class="st2" d="M90.1,30.3c-5.2,0.5-9.3,5-9.3,10.3c0,5.4,4.1,9.8,9.3,10.3c0,0,0.1,0,0.1,0c0,0,0,0,0,0c0,0,0,0,0,0v9.7
					c0,1.1,0.9,2,2,2h9.8c1.1,0,1.9-0.9,2-1.9c0.4-4.2,4-7.5,8.4-7.5c4.4,0,7.9,3.3,8.4,7.5c0.1,1,0.9,1.9,2,1.9h9.8
					c1.1,0,2-0.9,2-2V20.5c0-1.1-0.9-2-2-2H92.2c-1.1,0-2,0.9-2,2v9.7c0,0,0,0,0,0C90.2,30.2,90.2,30.2,90.1,30.3
					C90.1,30.3,90.1,30.3,90.1,30.3z"/>
				<path class="st4" d="M53.6,54c-5.2,0-9.4-4.2-9.4-9.4H32.4V2.4h42.5v11.7c-5.2,0-9.4,4.2-9.4,9.4s4.2,9.4,9.4,9.4v11.7H63.1
					C63.1,49.8,58.8,54,53.6,54L53.6,54z"/>
				<path class="st4" d="M53.6,56.3c-5.7,0-10.5-4-11.6-9.4h-9.6c-1.3,0-2.4-1.1-2.4-2.4V2.4C30,1.1,31.1,0,32.4,0h42.5
					c1.3,0,2.4,1.1,2.4,2.4v11.7c0,1.3-1.1,2.4-2.4,2.4c-3.9,0-7,3.1-7,7s3.2,7,7,7c1.3,0,2.4,1.1,2.4,2.4v11.7
					c0,1.3-1.1,2.4-2.4,2.4h-9.6C64.1,52.3,59.3,56.3,53.6,56.3L53.6,56.3z M34.8,42.2h9.4c1.3,0,2.4,1.1,2.4,2.4c0,3.9,3.2,7,7,7
					c3.9,0,7-3.1,7-7c0-1.3,1.1-2.4,2.4-2.4h9.4V35c-5.4-1.1-9.4-5.8-9.4-11.5s4.1-10.4,9.4-11.5V4.8H34.8V42.2L34.8,42.2z"/>
			</g>
		</g>
	</g>
</g>
</svg>
