<?xml version="1.0" encoding="utf-8"?>
<!-- Generator: Adobe Illustrator 24.0.1, SVG Export Plug-In . SVG Version: 6.00 Build 0)  -->
<svg version="1.1" id="Layer_1" xmlns="http://www.w3.org/2000/svg" xmlns:xlink="http://www.w3.org/1999/xlink" x="0px" y="0px"
	 viewBox="0 0 166 120" style="enable-background:new 0 0 166 120;" xml:space="preserve">
<style type="text/css">
	.st0{fill:#E9A127;}
	.st1{fill:#121524;}
	.st2{fill-rule:evenodd;clip-rule:evenodd;fill:#121524;}
</style>
<g>
	<path class="st0" d="M121,41.1c-0.2-0.2-0.4-0.3-0.7-0.4c0,0,0,0,0,0c0.2-1,0.3-2.5,0.5-4c0.1-1.6,0.2-3.3,0.2-4.9
		c0-1.6-0.2-3.1-0.7-4.3c-0.8-3.1-3.3-5.6-6.3-7.5c-3-1.9-6.7-3.1-10.3-3.8c-3.6-0.7-7.1-0.8-9.8-0.3c-1.3,0.3-2.6,0.7-3.5,1.4
		c-0.7,0.6-1.3,1.3-1.5,2.2c-2.7,0.8-4.7,2.1-6.1,3.8c-1.5,1.8-2.4,3.8-2.7,6c-0.6,3.7,0,7.9,0.7,11.6c-0.4,0-0.8,0.2-1.2,0.5
		l-0.1,0.1l-0.1,0.1c-0.4,0.6-0.6,1.3-0.6,1.9c0,0.6,0.1,1.3,0.2,1.9c0.1,0.6,0.3,1.2,0.4,1.8c0.2,0.6,0.3,1,0.3,1.4l0,0.1l0.1,0.1
		c0.2,0.5,0.4,0.9,0.6,1.3c0,0,0,0.1,0.1,0.1c0.1,0.2,0.2,0.5,0.3,0.7v0.3c0,0.7,0.2,1.3,0.5,1.8c0.2,0.3,0.4,0.6,0.8,0.8
		c0.1,0.4,0.2,0.8,0.3,1.1c0.5,2,1,3.9,1.7,5.7c0.8,2.1,1.9,4.1,3.8,5.5v3.7c-5.1,2.9-9.5,4.6-13.4,6.1c-0.5,0.2-0.9,0.4-1.4,0.5
		c-3.4,1.3-6.4,2.4-8.8,3.9c-2.9,1.8-5,4.1-6.4,7.9c-1.4,3.7-2.1,8.9-2.1,16.1v1h1h87.6h1v-1c0-7-0.7-12-2.1-15.7
		c-1.4-3.7-3.6-6.1-6.4-8c-2.5-1.6-5.6-2.9-9.2-4.3c-0.3-0.1-0.7-0.3-1-0.4c-3.9-1.5-8.3-3.4-13.4-6.2v-4.5c1.7-1.3,2.9-3.2,3.7-5.2
		c0.7-1.7,1.3-3.6,1.8-5.4c0.1-0.3,0.2-0.6,0.3-0.9c0.4-0.2,0.6-0.6,0.7-0.9c0.2-0.5,0.3-1.1,0.3-1.6c0.5-0.7,0.8-1.6,1-2.8
		c0.3-0.7,0.8-2.1,1.1-3.5c0.1-0.7,0.2-1.5,0.1-2.2C122,42.3,121.7,41.5,121,41.1z"/>
	<path class="st1" d="M146.2,106.5H54.6v-2c0-7.3,0.7-12.6,2.1-16.5c1.4-3.7,3.6-6.4,6.8-8.4c2.5-1.6,5.5-2.7,9-4L74,75
		c3.6-1.4,7.9-3,12.8-5.7v-2.7C85.2,65.3,84,63.5,83,61c-0.7-1.8-1.2-3.8-1.7-5.8l-0.2-0.8c-0.3-0.3-0.6-0.6-0.7-0.9
		c-0.4-0.7-0.6-1.5-0.6-2.4v-0.1c-0.1-0.2-0.2-0.4-0.2-0.6l-0.1-0.1c-0.2-0.4-0.3-0.8-0.6-1.3l-0.2-0.6c-0.1-0.3-0.2-0.8-0.3-1.3
		c-0.1-0.6-0.3-1.2-0.4-1.9c-0.2-0.8-0.2-1.5-0.2-2.1c0-1,0.3-1.8,0.8-2.5l0.4-0.3c0.2-0.2,0.4-0.3,0.6-0.4
		c-0.7-3.7-1.1-7.6-0.5-11.1c0.4-2.6,1.4-4.8,3-6.5c1.5-1.7,3.5-3,6.1-3.9c0.3-0.8,0.9-1.6,1.7-2.2c1-0.7,2.3-1.3,3.9-1.6
		c2.8-0.6,6.4-0.5,10.2,0.3c4,0.8,7.7,2.2,10.7,3.9c3.6,2.2,5.9,5,6.7,8c0.4,1.1,0.6,2.6,0.7,4.6c0,1.4,0,3.1-0.2,5
		c-0.1,1.1-0.2,2.2-0.4,3.4c0.1,0.1,0.1,0.1,0.2,0.2c0.8,0.5,1.3,1.4,1.4,2.5c0.1,0.7,0,1.5-0.2,2.5c-0.3,1.3-0.7,2.7-1.1,3.6
		c-0.2,1-0.5,1.9-1,2.8c0,0.6-0.1,1.2-0.3,1.7c-0.1,0.3-0.4,0.8-0.8,1.1l-0.2,0.6c-0.5,1.9-1.1,3.8-1.8,5.6c-1,2.3-2.1,4-3.6,5.3
		v3.4c4.8,2.7,8.9,4.4,12.8,5.9l1,0.4c3.6,1.4,6.7,2.7,9.4,4.4c3.3,2.1,5.4,4.8,6.8,8.5c1.5,3.8,2.1,8.9,2.1,16V106.5z M56.6,104.5
		l87.6,0c0-6.8-0.6-11.7-2-15.3c-1.2-3.3-3.1-5.6-6-7.5c-2.5-1.6-5.5-2.8-9-4.2l-1-0.4c-4.1-1.6-8.5-3.4-13.6-6.3l-0.5-0.3v-5.5
		l0.4-0.3c1.4-1.1,2.5-2.6,3.4-4.8c0.7-1.7,1.2-3.5,1.7-5.3l0.4-1.2l0.3-0.2c0.1-0.1,0.3-0.3,0.3-0.5c0.1-0.3,0.2-0.8,0.2-1.3l0-0.3
		l0.2-0.3c0.4-0.6,0.6-1.3,0.9-2.4l0-0.2c0.3-0.7,0.8-2,1-3.3c0.1-0.7,0.2-1.4,0.1-1.9c-0.1-0.5-0.3-0.9-0.6-1.1l-0.1-0.1
		c-0.1-0.1-0.2-0.2-0.3-0.2l-0.8-0.3l0.2-0.9c0.2-1.4,0.4-2.7,0.5-4c0.2-1.8,0.2-3.4,0.2-4.8c-0.1-1.7-0.3-3.1-0.6-4
		c-0.9-3.3-3.7-5.6-5.9-6.9c-2.7-1.7-6.3-3-10-3.7c-3.5-0.7-6.9-0.8-9.4-0.3c-1.3,0.3-2.3,0.7-3,1.2c-0.6,0.4-1,1-1.1,1.6l-0.1,0.6
		l-0.6,0.2c-2.4,0.8-4.3,1.9-5.7,3.5c-1.3,1.5-2.1,3.3-2.5,5.5c-0.6,3.5,0,7.5,0.7,11.3l0.2,1.1l-1.1,0.1c-0.2,0-0.5,0.1-0.7,0.3
		l0,0c-0.2,0.3-0.4,0.7-0.4,1.3c0,0.5,0,1,0.2,1.7c0.1,0.6,0.3,1.2,0.4,1.7c0.2,0.6,0.3,1.1,0.4,1.5c0.3,0.5,0.5,1,0.6,1.4l0.1,0.1
		c0.1,0.2,0.2,0.5,0.3,0.7l0.1,0.2v0.5c0,0.5,0.1,1,0.3,1.3c0.1,0.2,0.3,0.4,0.4,0.4l0.3,0.2l0.4,1.5c0.5,1.9,1,3.9,1.6,5.6
		c0.9,2.3,2,3.9,3.5,5.1l0.4,0.3v4.8l-0.5,0.3c-5.2,2.9-9.7,4.7-13.5,6.2l-1.4,0.5c-3.4,1.3-6.3,2.3-8.6,3.8c-2.9,1.8-4.8,4.1-6,7.4
		C57.2,92.4,56.6,97.4,56.6,104.5L56.6,104.5z"/>
</g>
<path class="st2" d="M66,61.5v4.6c3.5,1.9,6.4,3.2,9.1,4.3c-13.7,5.9-22.5,5.9-24.7,22.7H21.8c0-23,8.6-17.1,25.7-27v-4
	c-2.9-2.1-3.8-5.9-4.8-9.9c-0.3,0-0.8-0.8-0.8-1.6v-0.3c-0.3-0.5-0.5-1.1-0.8-2.1c-0.3-1.1-1.3-3.8-0.3-4.8c0.8-0.5,1.3,0.3,1.3,0.3
	c-1.3-6.7-2.9-15.3,6.2-17.7c0-5.6,21.2-3.2,23.6,5.9c1.3,3.5-0.3,11.5-0.3,11.5c0.3-0.5,0.8-0.5,1.3-0.3c1.1,0.8-0.3,4-0.5,5.1
	c-0.3,1.1-0.5,1.9-0.8,2.1v0.3c0,0.8-0.5,1.6-0.8,1.6C69.8,55.6,69,59.6,66,61.5L66,61.5z"/>
</svg>
