<?xml version="1.0" encoding="utf-8"?>
<!-- Generator: Adobe Illustrator 24.0.1, SVG Export Plug-In . SVG Version: 6.00 Build 0)  -->
<svg version="1.1" id="Layer_1" xmlns="http://www.w3.org/2000/svg" xmlns:xlink="http://www.w3.org/1999/xlink" x="0px" y="0px"
	 viewBox="0 0 166 120" style="enable-background:new 0 0 166 120;" xml:space="preserve">
<style type="text/css">
	.st0{clip-path:url(#SVGID_2_);}
	.st1{fill:#E9A127;}
	.st2{fill:#121524;}
	.st3{fill:#F7F7F5;}
</style>
<g>
	<defs>
		<rect id="SVGID_1_" x="33.7" y="3.7" width="100.6" height="113.5"/>
	</defs>
	<clipPath id="SVGID_2_">
		<use xlink:href="#SVGID_1_"  style="overflow:visible;"/>
	</clipPath>
	<g class="st0">
		<g>
			<path class="st1" d="M89.1,26.8L87.3,5.1H84h-3.3l-1.8,21.6H89.1z"/>
			<path class="st2" d="M90.6,28.1H77.4l2-24.4h9.2L90.6,28.1z M80.4,25.4h7.2L86.1,6.5h-4.1L80.4,25.4z"/>
		</g>
		<path class="st2" d="M128.4,62.2c0-14.3-6-28.9-17.7-38.4c-2.9-2.4-6.1-4.3-9.5-5.8l-1-6.3c-4.5-2.1-8.8-3.1-12.6-3.5l1.5,18.7
			H78.9L80.4,8c-7.7,0.7-12.6,3.6-12.6,3.6l-1.1,6.3c-11.7,5.4-20.2,15.8-24.3,27.3c-1.9,5.5-2.8,11.2-2.8,17L128.4,62.2"/>
		<path class="st2" d="M128.4,63.6H38.2v-1.4c0-6,1-11.9,2.9-17.4c4.3-12.4,13.2-22.5,24.3-27.8l1.1-6.2l0.5-0.3
			c0.2-0.1,5.3-3.1,13.2-3.8L82,6.5l-1.6,18.9h7.2L86,6.5l1.7,0.2c4.4,0.5,8.8,1.7,13.1,3.7l0.7,0.3l1,6.3c3.3,1.5,6.4,3.5,9.1,5.7
			c11.4,9.3,18.3,24.1,18.3,39.5h-1.4V63.6z M41,60.8H127c-0.4-14.1-6.8-27.5-17.2-36c-2.8-2.3-5.9-4.2-9.2-5.7l-0.7-0.3l-1-6.3
			c-3.2-1.4-6.5-2.4-9.8-2.9l1.5,18.5H77.4l1.5-18.6c-5,0.7-8.6,2.3-9.8,2.9l-1.1,6.4l-0.7,0.3c-10.8,5-19.4,14.6-23.5,26.5
			C42,50.5,41.1,55.6,41,60.8z"/>
		
			<rect x="103" y="14.7" transform="matrix(0.995 -9.950372e-02 9.950372e-02 0.995 -1.6962 10.4553)" class="st3" width="2" height="15.1"/>
		<rect x="56.1" y="21.2" transform="matrix(0.1323 -0.9912 0.9912 0.1323 33.2474 82.4456)" class="st3" width="15.1" height="2"/>
		<path class="st3" d="M73.6,54.7H44.8l-0.1-0.9c-0.4-6.3,4.1-14.2,4.3-14.5l1.7,1c0,0.1-3.9,6.9-4,12.4h26.8V54.7z"/>
		<g>
			<path class="st2" d="M128.9,62.2H39.1c0,0-4,0.2-4,6.4h97.8C132.9,62.3,128.9,62.2,128.9,62.2z"/>
			<path class="st2" d="M134.3,70H33.7l0-1.4c0-6,3.5-7.7,5.4-7.8l89.9,0l0,0c1.8,0.1,5.3,1.8,5.3,7.8L134.3,70z M36.6,67.2h94.8
				c-0.4-3.2-2.2-3.6-2.5-3.6H39.1C38.9,63.6,37,63.9,36.6,67.2z"/>
		</g>
		<rect x="36.2" y="59.2" class="st3" width="94.5" height="2"/>
		<g>
			<path class="st1" d="M124.6,68.6h-20.4c-0.3,10.7-9.1,19.3-19.8,19.3s-19.5-8.6-19.8-19.3H44.1c0,0.8,0,1.7,0.1,2.5l-8,2.1
				L39.9,87l7.8-2c1.7,3.8,3.9,7.2,6.7,10.3l-4.9,6.3l11.3,8.7l4.8-6.2c3.6,1.9,7.5,3.3,11.7,4v7.8h14.3v-7.8c4-0.7,7.7-2,11.2-3.8
				l4.7,6.3l11.4-8.5l-4.8-6.3c2-2.2,3.8-4.6,5.3-7.2l7.5,2.8l4.9-13.4l-7.7-2.8C124.4,72.9,124.6,70.8,124.6,68.6L124.6,68.6z"/>
			<path class="st2" d="M91.5,116.8H77.2c-0.6,0-1-0.4-1-1v-6.9c-3.6-0.7-7.1-1.9-10.4-3.6l-4.3,5.5c-0.2,0.2-0.4,0.3-0.7,0.4
				c-0.3,0-0.5,0-0.7-0.2l-11.3-8.7c-0.2-0.2-0.3-0.4-0.4-0.7c0-0.3,0-0.5,0.2-0.7l4.3-5.6c-2.4-2.8-4.4-5.8-5.9-9.1l-7,1.8
				c-0.5,0.1-1.1-0.2-1.2-0.7l-3.6-13.8c-0.1-0.3,0-0.5,0.1-0.8c0.1-0.2,0.4-0.4,0.6-0.5l7.2-1.9c0-0.6,0-1.2,0-1.8
				c0-0.3,0.1-0.5,0.3-0.7s0.4-0.3,0.7-0.3h20.4c0.5,0,1,0.4,1,1c0.3,10.3,8.6,18.3,18.8,18.3s18.5-8,18.8-18.3c0-0.5,0.5-1,1-1
				h20.3c0,0,0.1,0,0.1,0c0.6,0,1,0.4,1,1c0,0,0,0,0,0c0,1.9-0.1,3.8-0.4,5.8l6.9,2.5c0.5,0.2,0.8,0.8,0.6,1.3l-4.9,13.4
				c-0.1,0.2-0.3,0.5-0.5,0.6c-0.2,0.1-0.5,0.1-0.8,0l-6.7-2.5c-1.3,2.2-2.8,4.2-4.4,6.1l4.3,5.7c0.2,0.2,0.2,0.5,0.2,0.7
				c0,0.3-0.2,0.5-0.4,0.7l-11.4,8.5c-0.4,0.3-1.1,0.2-1.4-0.2l-4.2-5.6c-3.1,1.5-6.4,2.6-9.9,3.3v6.9
				C92.5,116.4,92,116.8,91.5,116.8z M78.2,114.8h12.3v-6.8c0-0.5,0.3-0.9,0.8-1c3.8-0.7,7.5-1.9,10.9-3.7c0.4-0.2,1-0.1,1.3,0.3
				l4.1,5.5l9.8-7.4l-4.2-5.5c-0.3-0.4-0.3-0.9,0.1-1.3c2-2.1,3.7-4.5,5.1-7.1c0.2-0.4,0.8-0.6,1.2-0.4l6.6,2.4l4.2-11.5l-6.7-2.5
				c-0.4-0.2-0.7-0.6-0.6-1.1c0.3-1.7,0.5-3.5,0.5-5.3h-18.4c-0.8,10.9-9.8,19.3-20.8,19.3s-20-8.4-20.8-19.3H45.2
				c0,0.5,0,1,0.1,1.5c0,0.5-0.3,0.9-0.7,1l-7,1.8l3.1,11.9l6.8-1.8c0.5-0.1,1,0.1,1.2,0.6c1.6,3.7,3.8,7,6.5,10
				c0.3,0.4,0.3,0.9,0,1.3l-4.2,5.5l9.7,7.5l4.2-5.4c0.3-0.4,0.8-0.5,1.3-0.3c3.6,1.9,7.4,3.2,11.4,3.9c0.5,0.1,0.8,0.5,0.8,1V114.8
				z"/>
		</g>
	</g>
</g>
</svg>
